<?xml version="1.0" encoding="UTF-8" standalone="no"?>
<!-- Created with Inkscape (http://www.inkscape.org/) -->

<svg
   width="76.199997mm"
   height="128.5mm"
   viewBox="0 0 76.199997 128.5"
   version="1.1"
   id="svg5"
   inkscape:version="1.1 (c68e22c387, 2021-05-23)"
   sodipodi:docname="Blur.svg"
   xmlns:inkscape="http://www.inkscape.org/namespaces/inkscape"
   xmlns:sodipodi="http://sodipodi.sourceforge.net/DTD/sodipodi-0.dtd"
   xmlns="http://www.w3.org/2000/svg"
   xmlns:svg="http://www.w3.org/2000/svg">
  <sodipodi:namedview
     id="namedview7"
     pagecolor="#ffffff"
     bordercolor="#666666"
     borderopacity="1.0"
     inkscape:pageshadow="2"
     inkscape:pageopacity="0.0"
     inkscape:pagecheckerboard="0"
     inkscape:document-units="mm"
     showgrid="false"
     inkscape:zoom="1.0482005"
     inkscape:cx="-7.1551197"
     inkscape:cy="241.36604"
     inkscape:window-width="1552"
     inkscape:window-height="972"
     inkscape:window-x="269"
     inkscape:window-y="15"
     inkscape:window-maximized="0"
     inkscape:current-layer="layer4"
     height="128.5mm"
     width="50.8mm"
     showguides="false" />
  <defs
     id="defs2">
    <rect
       x="162.18271"
       y="53.424893"
       width="115.43593"
       height="65.827101"
       id="rect53366" />
    <marker
       style="overflow:visible"
       id="Arrow1Lstart"
       refX="0.0"
       refY="0.0"
       orient="auto"
       inkscape:stockid="Arrow1Lstart"
       inkscape:isstock="true">
      <path
         transform="scale(0.8) translate(12.5,0)"
         style="fill-rule:evenodd;fill:context-stroke;stroke:context-stroke;stroke-width:1.0pt"
         d="M 0.0,0.0 L 5.0,-5.0 L -12.5,0.0 L 5.0,5.0 L 0.0,0.0 z "
         id="path10030" />
    </marker>
    <rect
       x="10.494176"
       y="-108.75782"
       width="272.84857"
       height="51.516862"
       id="rect17595" />
    <rect
       x="53.967293"
       y="951.17352"
       width="311.6611"
       height="76.903389"
       id="rect44562" />
    <rect
       x="473.56299"
       y="925.53906"
       width="230.71017"
       height="62.062386"
       id="rect41400" />
    <rect
       x="493.80072"
       y="783.87494"
       width="191.58389"
       height="55.316475"
       id="rect36810" />
    <rect
       x="470.86462"
       y="671.89276"
       width="58.014835"
       height="24.285278"
       id="rect33240" />
    <rect
       x="431.73834"
       y="607.13202"
       width="182.1396"
       height="49.919746"
       id="rect30990" />
    <rect
       x="426.34161"
       y="489.75317"
       width="237.45609"
       height="71.50666"
       id="rect28630" />
    <rect
       x="442.5318"
       y="329.20047"
       width="230.71017"
       height="110.63295"
       id="rect27194" />
    <rect
       x="433.08752"
       y="192.93307"
       width="250.94791"
       height="83.6493"
       id="rect25340" />
    <rect
       x="268.48727"
       y="995.69653"
       width="171.34615"
       height="44.523018"
       id="rect20604" />
    <rect
       x="273.884"
       y="918.79315"
       width="207.77408"
       height="40.475468"
       id="rect17430" />
    <rect
       x="308.96274"
       y="854.03241"
       width="168.6478"
       height="47.221382"
       id="rect15356" />
    <rect
       x="339.99393"
       y="709.66992"
       width="248.24956"
       height="103.88704"
       id="rect12160" />
    <rect
       x="349.43823"
       y="648.95667"
       width="52.618111"
       height="25.634464"
       id="rect2028" />
    <rect
       x="433.08752"
       y="192.93307"
       width="83.995113"
       height="27.362357"
       id="rect25340-8" />
    <rect
       x="493.80072"
       y="783.87494"
       width="191.58389"
       height="55.316475"
       id="rect36810-5" />
    <rect
       x="493.80072"
       y="783.87494"
       width="191.58389"
       height="55.316475"
       id="rect36810-8" />
    <rect
       x="349.43823"
       y="648.95667"
       width="52.618111"
       height="25.634464"
       id="rect2028-5" />
    <rect
       x="473.56299"
       y="925.53906"
       width="230.71017"
       height="62.062386"
       id="rect41400-2" />
    <rect
       x="162.18271"
       y="53.424892"
       width="115.43593"
       height="65.827103"
       id="rect53366-3" />
    <rect
       x="162.18271"
       y="53.424892"
       width="115.43593"
       height="65.827103"
       id="rect53366-4" />
    <rect
       x="162.18271"
       y="53.424892"
       width="115.43593"
       height="65.827103"
       id="rect53366-43" />
    <rect
       x="162.18271"
       y="53.424892"
       width="115.43593"
       height="65.827103"
       id="rect53366-2" />
    <rect
       x="162.18271"
       y="53.424892"
       width="115.43593"
       height="65.827103"
       id="rect53366-5" />
    <rect
       x="162.18271"
       y="53.424892"
       width="115.43593"
       height="65.827103"
       id="rect53366-6" />
    <rect
       x="162.18271"
       y="53.424892"
       width="115.43593"
       height="65.827103"
       id="rect53366-0" />
    <rect
       x="162.18271"
       y="53.424892"
       width="115.43593"
       height="65.827103"
       id="rect53366-06" />
    <rect
       x="162.18271"
       y="53.424892"
       width="115.43593"
       height="65.827103"
       id="rect53366-69" />
    <rect
       x="162.18271"
       y="53.424892"
       width="115.43593"
       height="65.827103"
       id="rect53366-7" />
    <rect
       x="162.18271"
       y="53.424892"
       width="115.43593"
       height="65.827103"
       id="rect53366-43-6" />
    <rect
       x="162.18271"
       y="53.424892"
       width="115.43593"
       height="65.827103"
       id="rect53366-43-3" />
    <rect
       x="162.18271"
       y="53.424892"
       width="115.43593"
       height="65.827103"
       id="rect53366-31" />
    <rect
       x="162.18271"
       y="53.424892"
       width="115.43593"
       height="65.827103"
       id="rect53366-69-3" />
  </defs>
  <g
     inkscape:label="Layer 1"
     inkscape:groupmode="layer"
     id="layer1"
     style="display:inline;opacity:1">
    <path
       style="fill:#e6e6e6;fill-opacity:1;stroke:none;stroke-width:0.439817"
       d="M 76.199904,64.249991 V 0 H 38.09991 0 v 64.249991 64.249869 h 38.09991 38.099994 z"
       id="path356" />
    <text
       xml:space="preserve"
       transform="scale(0.26458333)"
       id="text17428"
       style="font-style:normal;font-weight:normal;font-size:40px;line-height:1.25;font-family:sans-serif;white-space:pre;shape-inside:url(#rect17430);fill:#000000;fill-opacity:1;stroke:none"><tspan
         x="273.88477"
         y="995.76274"
         id="tspan1537"><tspan
           dx="0 24.121094 31.484375"
           id="tspan1535">POS</tspan></tspan></text>
    <text
       xml:space="preserve"
       transform="scale(0.26458333)"
       id="text20602"
       style="font-style:normal;font-weight:normal;font-size:40px;line-height:1.25;font-family:sans-serif;white-space:pre;shape-inside:url(#rect20604);fill:#000000;fill-opacity:1;stroke:none" />
    <rect
       style="display:inline;opacity:1;fill:#1a1a1a;stroke-width:0.288141"
       id="rect528"
       width="14.278846"
       height="17.78153"
       x="60.324993"
       y="106.30584"
       ry="2.3755326"
       rx="2.0193338" />
    <path
       style="fill:none;stroke:#000000;stroke-width:0.242868px;stroke-linecap:butt;stroke-linejoin:miter;stroke-opacity:1"
       d="m 15.451907,44.718803 c 22.544558,0 22.969924,0 22.969924,0"
       id="path41615-9" />
    <path
       style="display:inline;fill:none;stroke:#000000;stroke-width:0.152757px;stroke-linecap:butt;stroke-linejoin:miter;stroke-opacity:1"
       d="m 69.314133,77.494172 c 0,8.918725 0,9.087002 0,9.087002"
       id="path41615-10-2" />
    <path
       style="display:inline;fill:none;stroke:#000000;stroke-width:0.238831px;stroke-linecap:butt;stroke-linejoin:miter;stroke-opacity:1"
       d="m 9.4656278,105.81128 c 21.8013252,0 22.2126712,0 22.2126712,0"
       id="path41615-2-6" />
    <path
       style="display:inline;fill:none;stroke:#000000;stroke-width:0.238831px;stroke-linecap:butt;stroke-linejoin:miter;stroke-opacity:1"
       d="m 9.5918358,95.136612 c 21.8013252,0 22.2126712,0 22.2126712,0"
       id="path41615-2" />
    <path
       style="display:inline;fill:none;stroke:#000000;stroke-width:0.242868px;stroke-linecap:butt;stroke-linejoin:miter;stroke-opacity:1"
       d="m 9.6310703,77.017608 c 22.5445537,0 22.9699217,0 22.9699217,0"
       id="path41615-1" />
    <path
       style="display:inline;fill:none;stroke:#000000;stroke-width:0.242868px;stroke-linecap:butt;stroke-linejoin:miter;stroke-opacity:1"
       d="m 15.533476,65.902633 c 22.544554,0 22.969922,0 22.969922,0"
       id="path41615-51" />
    <path
       style="display:inline;fill:none;stroke:#000000;stroke-width:0.242868px;stroke-linecap:butt;stroke-linejoin:miter;stroke-opacity:1"
       d="m 15.451907,34.471474 c 22.544554,0 22.969922,0 22.969922,0"
       id="path41615-5" />
    <path
       style="display:inline;fill:none;stroke:#000000;stroke-width:0.242868px;stroke-linecap:butt;stroke-linejoin:miter;stroke-opacity:1"
       d="m 9.6310703,24.565213 c 22.5445537,0 22.9699217,0 22.9699217,0"
       id="path41615-6" />
    <path
       style="display:inline;fill:none;stroke:#000000;stroke-width:0.16102px;stroke-linecap:butt;stroke-linejoin:miter;stroke-opacity:1"
       d="m 24.934042,84.924057 c -9.909695,0 -10.09667,0 -10.09667,0"
       id="path41615-10-2-3" />
    <path
       style="display:inline;fill:none;stroke:#000000;stroke-width:0.242868px;stroke-linecap:butt;stroke-linejoin:miter;stroke-opacity:1"
       d="m 15.451907,55.140888 c 22.544554,0 22.969922,0 22.969922,0"
       id="path41615-8" />
    <path
       style="display:inline;fill:none;stroke:#000000;stroke-width:0.242868px;stroke-linecap:butt;stroke-linejoin:miter;stroke-opacity:1"
       d="m 9.6310703,13.83558 c 22.5445537,0 22.9699217,0 22.9699217,0"
       id="path41615" />
  </g>
  <g
     inkscape:groupmode="layer"
     id="layer4"
     inkscape:label="Labels"
     style="display:inline">
    <g
       aria-label="Blur"
       transform="matrix(0.26458333,0,0,0.26458333,-10.049056,-11.863586)"
       id="text53364"
       style="font-size:18.6667px;line-height:1.25;-inkscape-font-specification:'sans-serif, Normal';white-space:pre;shape-inside:url(#rect53366)">
      <path
         d="m 174.24221,66.281491 q 0,1.011721 -0.38281,1.786462 -0.38282,0.774741 -1.02995,1.276044 -0.76563,0.601563 -1.6862,0.856772 -0.91146,0.255209 -2.32423,0.255209 h -4.81251 V 56.884339 h 4.01954 q 1.48568,0 2.22396,0.109375 0.73829,0.109375 1.41277,0.45573 0.74739,0.391928 1.08463,1.011721 0.33725,0.610678 0.33725,1.46745 0,0.966148 -0.49219,1.649743 -0.49219,0.67448 -1.31251,1.084637 v 0.07292 q 1.37631,0.282552 2.16928,1.212242 0.79297,0.920574 0.79297,2.333337 z m -3.03516,-6.115896 q 0,-0.492189 -0.16407,-0.829429 -0.16406,-0.33724 -0.52864,-0.546876 -0.42839,-0.246094 -1.03907,-0.300782 -0.61067,-0.0638 -1.51302,-0.0638 h -2.15105 v 3.919278 h 2.33334 q 0.84766,0 1.34896,-0.08203 0.50131,-0.09115 0.92969,-0.364584 0.42839,-0.273438 0.60157,-0.701824 0.18229,-0.437501 0.18229,-1.02995 z m 1.15755,6.188813 q 0,-0.820314 -0.24609,-1.303388 -0.2461,-0.483074 -0.89323,-0.820314 -0.4375,-0.227865 -1.06641,-0.291667 -0.61979,-0.07292 -1.51303,-0.07292 h -2.83464 v 5.049489 h 2.38803 q 1.1849,0 1.94141,-0.11849 0.75651,-0.127605 1.23958,-0.45573 0.51042,-0.35547 0.7474,-0.8112 0.23698,-0.45573 0.23698,-1.175783 z"
         id="path2719" />
      <path
         d="m 178.39847,70.455978 h -1.71355 V 56.273661 h 1.71355 z"
         id="path2721" />
      <path
         d="m 190.22922,70.455978 h -1.71355 v -1.13021 q -0.86588,0.683595 -1.65885,1.048179 -0.79297,0.364583 -1.75001,0.364583 -1.60417,0 -2.4974,-0.975262 -0.89323,-0.984376 -0.89323,-2.880213 V 60.27497 h 1.71355 v 5.796885 q 0,0.774741 0.0729,1.330732 0.0729,0.546876 0.3099,0.938804 0.24609,0.401042 0.63802,0.583334 0.39193,0.182292 1.13933,0.182292 0.66536,0 1.44922,-0.346355 0.79297,-0.346354 1.47656,-0.884116 V 60.27497 h 1.71355 z"
         id="path2723" />
      <path
         d="m 199.95449,62.143463 h -0.0911 q -0.38282,-0.09115 -0.7474,-0.127604 -0.35547,-0.04557 -0.84766,-0.04557 -0.79297,0 -1.53125,0.355469 -0.73828,0.346355 -1.42188,0.902345 v 7.227878 h -1.71354 V 60.27497 h 1.71354 v 1.503909 q 1.02084,-0.820314 1.79558,-1.157554 0.78385,-0.346355 1.59505,-0.346355 0.44662,0 0.64714,0.02734 0.20052,0.01823 0.60156,0.08203 z"
         id="path2725" />
    </g>
    <g
       aria-label="Tonecarver"
       transform="matrix(0.26458333,0,0,0.26458333,-18.397915,107.38637)"
       id="text53364-2"
       style="font-size:18.6667px;line-height:1.25;-inkscape-font-specification:'sans-serif, Normal';white-space:pre;shape-inside:url(#rect53366-31)">
      <path
         d="m 173.68622,58.488508 h -4.84897 v 11.96747 h -1.80469 v -11.96747 h -4.84897 v -1.604169 h 11.50263 z"
         id="path3144" />
      <path
         d="m 182.04431,65.370031 q 0,2.488286 -1.27605,3.928393 -1.27604,1.440106 -3.41797,1.440106 -2.16016,0 -3.43621,-1.440106 -1.26693,-1.440107 -1.26693,-3.928393 0,-2.488286 1.26693,-3.928392 1.27605,-1.449222 3.43621,-1.449222 2.14193,0 3.41797,1.449222 1.27605,1.440106 1.27605,3.928392 z m -1.76824,0 q 0,-1.977868 -0.77474,-2.934901 -0.77474,-0.966147 -2.15104,-0.966147 -1.39454,0 -2.16928,0.966147 -0.76562,0.957033 -0.76562,2.934901 0,1.914066 0.77474,2.907558 0.77474,0.984376 2.16016,0.984376 1.36719,0 2.14193,-0.975262 0.78385,-0.984377 0.78385,-2.916672 z"
         id="path3146" />
      <path
         d="m 193.20969,70.455978 h -1.71354 v -5.796886 q 0,-0.701824 -0.082,-1.312502 -0.082,-0.619793 -0.30079,-0.966148 -0.22786,-0.382813 -0.65625,-0.565105 -0.42838,-0.191406 -1.11198,-0.191406 -0.70182,0 -1.46745,0.346355 -0.76563,0.346354 -1.46745,0.884116 v 7.601576 h -1.71354 V 60.27497 h 1.71354 v 1.13021 q 0.80208,-0.665365 1.65886,-1.039064 0.85677,-0.373699 1.75911,-0.373699 1.64975,0 2.51563,0.993492 0.86589,0.993491 0.86589,2.861984 z"
         id="path3148" />
      <path
         d="m 205.03133,65.543209 h -7.50132 q 0,0.938803 0.28255,1.640628 0.28256,0.692709 0.77474,1.139325 0.47396,0.4375 1.1211,0.656251 0.65625,0.21875 1.44011,0.21875 1.03906,0 2.08724,-0.410157 1.05729,-0.419271 1.50391,-0.820314 h 0.0912 v 1.868493 q -0.86589,0.364584 -1.76824,0.610678 -0.90234,0.246094 -1.89583,0.246094 -2.53386,0 -3.95574,-1.367189 -1.42188,-1.376305 -1.42188,-3.901049 0,-2.497401 1.35808,-3.964851 1.36719,-1.467451 3.59115,-1.467451 2.0599,0 3.17188,1.203128 1.1211,1.203127 1.1211,3.417974 z m -1.66797,-1.312503 q -0.009,-1.348961 -0.6836,-2.087243 -0.66537,-0.738283 -2.03256,-0.738283 -1.3763,0 -2.19661,0.8112 -0.8112,0.811199 -0.92058,2.014326 z"
         id="path3150" />
      <path
         d="m 215.15765,69.817956 q -0.85677,0.410157 -1.63152,0.638022 -0.76562,0.227865 -1.63151,0.227865 -1.10287,0 -2.02344,-0.319011 -0.92057,-0.328126 -1.57683,-0.984377 -0.66536,-0.656251 -1.02995,-1.658857 -0.36458,-1.002606 -0.36458,-2.342452 0,-2.497401 1.36719,-3.919278 1.3763,-1.421878 3.62761,-1.421878 0.875,0 1.71355,0.246095 0.84765,0.246094 1.54948,0.601563 v 1.904951 h -0.0911 q -0.78385,-0.610678 -1.6224,-0.938803 -0.82943,-0.328126 -1.6224,-0.328126 -1.45833,0 -2.30599,0.984377 -0.83854,0.975262 -0.83854,2.871099 0,1.841149 0.82031,2.83464 0.82943,0.984377 2.32422,0.984377 0.51954,0 1.0573,-0.136719 0.53776,-0.136719 0.96615,-0.355469 0.37369,-0.191407 0.70182,-0.401043 0.32812,-0.21875 0.51953,-0.373698 h 0.0911 z"
         id="path3152" />
      <path
         d="m 225.26574,70.455978 h -1.70443 v -1.084637 q -0.22787,0.154948 -0.6198,0.4375 -0.38281,0.273438 -0.74739,0.437501 -0.42839,0.209636 -0.98438,0.346355 -0.55599,0.145833 -1.30339,0.145833 -1.3763,0 -2.33333,-0.911459 -0.95704,-0.91146 -0.95704,-2.324223 0,-1.157555 0.49219,-1.868493 0.5013,-0.720054 1.42188,-1.130211 0.92969,-0.410157 2.23308,-0.55599 1.30338,-0.145834 2.79818,-0.218751 V 63.46508 q 0,-0.583335 -0.20964,-0.966148 -0.20052,-0.382813 -0.58333,-0.601563 -0.36459,-0.209636 -0.875,-0.282553 -0.51042,-0.07292 -1.06641,-0.07292 -0.67448,0 -1.50391,0.182292 -0.82943,0.173178 -1.71355,0.510418 h -0.0911 V 60.49372 q 0.5013,-0.136719 1.44922,-0.300781 0.94792,-0.164063 1.86849,-0.164063 1.07552,0 1.8685,0.182292 0.80208,0.173177 1.38541,0.601563 0.57422,0.419272 0.87501,1.084638 0.30078,0.665365 0.30078,1.649742 z m -1.70443,-2.506515 v -2.834641 q -0.78386,0.04557 -1.85027,0.136719 -1.05729,0.09115 -1.67708,0.264324 -0.73829,0.209636 -1.19402,0.656251 -0.45573,0.437501 -0.45573,1.212242 0,0.875001 0.52865,1.321617 0.52865,0.437501 1.61329,0.437501 0.90234,0 1.64974,-0.346355 0.7474,-0.35547 1.38542,-0.847658 z"
         id="path3154" />
      <path
         d="m 234.9181,62.143463 h -0.0911 q -0.38281,-0.09115 -0.7474,-0.127604 -0.35546,-0.04557 -0.84765,-0.04557 -0.79297,0 -1.53126,0.355469 -0.73828,0.346355 -1.42187,0.902345 v 7.227878 h -1.71355 V 60.27497 h 1.71355 v 1.503909 q 1.02083,-0.820314 1.79557,-1.157554 0.78386,-0.346355 1.59506,-0.346355 0.44661,0 0.64713,0.02734 0.20053,0.01823 0.60157,0.08203 z"
         id="path3156" />
      <path
         d="m 245.33609,60.27497 -4.1198,10.181008 h -1.72266 L 235.40117,60.27497 h 1.85938 l 3.15365,8.102879 3.12631,-8.102879 z"
         id="path3158" />
      <path
         d="m 255.93636,65.543209 h -7.50131 q 0,0.938803 0.28255,1.640628 0.28255,0.692709 0.77474,1.139325 0.47396,0.4375 1.1211,0.656251 0.65625,0.21875 1.4401,0.21875 1.03907,0 2.08725,-0.410157 1.05729,-0.419271 1.50391,-0.820314 h 0.0911 v 1.868493 q -0.86588,0.364584 -1.76823,0.610678 -0.90235,0.246094 -1.89584,0.246094 -2.53386,0 -3.95573,-1.367189 -1.42188,-1.376305 -1.42188,-3.901049 0,-2.497401 1.35808,-3.964851 1.36718,-1.467451 3.59115,-1.467451 2.0599,0 3.17188,1.203128 1.12109,1.203127 1.12109,3.417974 z m -1.66797,-1.312503 q -0.009,-1.348961 -0.68359,-2.087243 -0.66537,-0.738283 -2.03256,-0.738283 -1.3763,0 -2.19662,0.8112 -0.8112,0.811199 -0.92057,2.014326 z"
         id="path3160" />
      <path
         d="m 264.8869,62.143463 h -0.0911 q -0.38282,-0.09115 -0.7474,-0.127604 -0.35547,-0.04557 -0.84766,-0.04557 -0.79297,0 -1.53125,0.355469 -0.73829,0.346355 -1.42188,0.902345 v 7.227878 h -1.71354 V 60.27497 h 1.71354 v 1.503909 q 1.02083,-0.820314 1.79558,-1.157554 0.78385,-0.346355 1.59505,-0.346355 0.44662,0 0.64714,0.02734 0.20052,0.01823 0.60156,0.08203 z"
         id="path3162" />
    </g>
    <g
       aria-label="Blur"
       transform="matrix(0.26458333,0,0,0.26458333,2.80655,18.049836)"
       id="text53364-3"
       style="font-size:16px;line-height:1.25;-inkscape-font-specification:'sans-serif, Normal';white-space:pre;shape-inside:url(#rect53366-43)">
      <path
         d="m 172.51953,64.444941 q 0,0.867188 -0.32812,1.53125 -0.32813,0.664063 -0.88282,1.09375 -0.65625,0.515625 -1.44531,0.734375 -0.78125,0.21875 -1.99219,0.21875 h -4.125 V 56.390254 h 3.44532 q 1.27343,0 1.90625,0.09375 0.63281,0.09375 1.21093,0.390625 0.64063,0.335937 0.92969,0.867187 0.28906,0.523438 0.28906,1.257813 0,0.828125 -0.42187,1.414062 -0.42188,0.578125 -1.125,0.929688 v 0.0625 q 1.17969,0.242187 1.85937,1.039062 0.67969,0.789063 0.67969,2 z m -2.60156,-5.242187 q 0,-0.421875 -0.14063,-0.710938 -0.14062,-0.289062 -0.45312,-0.46875 -0.36719,-0.210937 -0.89063,-0.257812 -0.52343,-0.05469 -1.29687,-0.05469 h -1.84375 v 3.359375 h 2 q 0.72656,0 1.15625,-0.07031 0.42969,-0.07813 0.79687,-0.3125 0.36719,-0.234375 0.51563,-0.601563 0.15625,-0.375 0.15625,-0.882812 z m 0.99219,5.304687 q 0,-0.703125 -0.21094,-1.117187 -0.21094,-0.414063 -0.76563,-0.703125 -0.375,-0.195313 -0.91406,-0.25 -0.53125,-0.0625 -1.29687,-0.0625 h -2.42969 v 4.328125 h 2.04687 q 1.01563,0 1.66407,-0.101563 0.64843,-0.109375 1.0625,-0.390625 0.4375,-0.304687 0.64062,-0.695312 0.20313,-0.390625 0.20313,-1.007813 z"
         id="path2830" />
      <path
         d="m 176.08203,68.023066 h -1.46875 v -12.15625 h 1.46875 z"
         id="path2832" />
      <path
         d="m 186.22266,68.023066 h -1.46875 v -0.96875 q -0.74219,0.585938 -1.42188,0.898438 -0.67969,0.3125 -1.5,0.3125 -1.375,0 -2.14062,-0.835938 -0.76563,-0.84375 -0.76563,-2.46875 v -5.664062 h 1.46875 v 4.96875 q 0,0.664062 0.0625,1.140625 0.0625,0.46875 0.26563,0.804687 0.21093,0.34375 0.54687,0.5 0.33594,0.15625 0.97656,0.15625 0.57032,0 1.24219,-0.296875 0.67969,-0.296875 1.26563,-0.757812 v -6.515625 h 1.46875 z"
         id="path2834" />
      <path
         d="m 194.55859,60.898066 h -0.0781 q -0.32813,-0.07813 -0.64063,-0.109375 -0.30468,-0.03906 -0.72656,-0.03906 -0.67969,0 -1.3125,0.304687 -0.63281,0.296875 -1.21875,0.773438 v 6.195312 h -1.46875 v -8.726562 h 1.46875 v 1.289062 q 0.875,-0.703125 1.53906,-0.992187 0.67188,-0.296875 1.36719,-0.296875 0.38281,0 0.55469,0.02344 0.17187,0.01563 0.51562,0.07031 z"
         id="path2836" />
    </g>
    <g
       aria-label="In"
       transform="matrix(0.26458333,0,0,0.26458333,-31.854392,101.27136)"
       id="text53364-3-8"
       style="font-size:16px;line-height:1.25;-inkscape-font-specification:'sans-serif, Normal';white-space:pre;shape-inside:url(#rect53366-43-6)">
      <path
         d="m 167.84766,68.023066 h -4.59375 v -1.1875 h 1.52343 v -9.257812 h -1.52343 v -1.1875 h 4.59375 v 1.1875 h -1.52344 v 9.257812 h 1.52344 z"
         id="path3121" />
      <path
         d="m 177.66016,68.023066 h -1.46875 v -4.96875 q 0,-0.601562 -0.0703,-1.125 -0.0703,-0.53125 -0.25781,-0.828125 -0.19531,-0.328125 -0.5625,-0.484375 -0.36719,-0.164062 -0.95312,-0.164062 -0.60157,0 -1.25782,0.296875 -0.65625,0.296875 -1.25781,0.757812 v 6.515625 h -1.46875 v -8.726562 h 1.46875 v 0.96875 q 0.6875,-0.570313 1.42188,-0.890625 0.73437,-0.320313 1.50781,-0.320313 1.41406,0 2.15625,0.851563 0.74219,0.851562 0.74219,2.453125 z"
         id="path3123" />
    </g>
    <g
       aria-label="Out"
       transform="matrix(0.26458333,0,0,0.26458333,20.638333,94.228027)"
       id="text53364-3-4"
       style="font-size:16px;line-height:1.25;-inkscape-font-specification:'sans-serif, Normal';white-space:pre;shape-inside:url(#rect53366-43-3);stroke:#ffffff">
      <path
         d="m 172.41797,57.726191 q 0.71094,0.78125 1.08594,1.914063 0.38281,1.132812 0.38281,2.570312 0,1.4375 -0.39063,2.578125 -0.38281,1.132813 -1.07812,1.890625 -0.71875,0.789063 -1.70313,1.1875 -0.97656,0.398438 -2.23437,0.398438 -1.22656,0 -2.23438,-0.40625 -1,-0.40625 -1.70312,-1.179688 -0.70313,-0.773437 -1.08594,-1.898437 -0.375,-1.125 -0.375,-2.570313 0,-1.421875 0.375,-2.546875 0.375,-1.132812 1.09375,-1.9375 0.6875,-0.765625 1.70313,-1.171875 1.02343,-0.40625 2.22656,-0.40625 1.25,0 2.24219,0.414063 1,0.40625 1.69531,1.164062 z m -0.14063,4.484375 q 0,-2.265625 -1.01562,-3.492187 -1.01563,-1.234375 -2.77344,-1.234375 -1.77344,0 -2.78906,1.234375 -1.00781,1.226562 -1.00781,3.492187 0,2.289063 1.03125,3.507813 1.03125,1.210937 2.76562,1.210937 1.73438,0 2.75781,-1.210937 1.03125,-1.21875 1.03125,-3.507813 z"
         id="path3183" />
      <path
         d="m 183.45703,68.023066 h -1.46875 v -0.96875 q -0.74219,0.585938 -1.42187,0.898438 -0.67969,0.3125 -1.5,0.3125 -1.375,0 -2.14063,-0.835938 -0.76562,-0.84375 -0.76562,-2.46875 v -5.664062 h 1.46875 v 4.96875 q 0,0.664062 0.0625,1.140625 0.0625,0.46875 0.26562,0.804687 0.21094,0.34375 0.54688,0.5 0.33593,0.15625 0.97656,0.15625 0.57031,0 1.24219,-0.296875 0.67968,-0.296875 1.26562,-0.757812 v -6.515625 h 1.46875 z"
         id="path3185" />
      <path
         d="m 190.87891,67.944941 q -0.41407,0.109375 -0.90625,0.179688 -0.48438,0.07031 -0.86719,0.07031 -1.33594,0 -2.03125,-0.71875 -0.69531,-0.71875 -0.69531,-2.304687 v -4.640625 h -0.99219 v -1.234375 h 0.99219 v -2.507813 h 1.46875 v 2.507813 h 3.03125 v 1.234375 h -3.03125 v 3.976562 q 0,0.6875 0.0312,1.078125 0.0312,0.382813 0.21875,0.71875 0.17187,0.3125 0.46875,0.460938 0.30468,0.140625 0.92187,0.140625 0.35938,0 0.75,-0.101563 0.39063,-0.109375 0.5625,-0.179687 h 0.0781 z"
         id="path3187" />
    </g>
    <g
       aria-label="Freq Span"
       transform="matrix(0.26458333,0,0,0.26458333,2.80655,27.862049)"
       id="text53364-6"
       style="font-size:16px;line-height:1.25;-inkscape-font-specification:'sans-serif, Normal';white-space:pre;shape-inside:url(#rect53366-2)">
      <path
         d="m 171.17578,57.765254 h -5.88281 v 3.28125 h 5.05469 v 1.375 h -5.05469 v 5.601562 h -1.54688 V 56.390254 h 7.42969 z"
         id="path2857" />
      <path
         d="m 178.26953,60.898066 h -0.0781 q -0.32813,-0.07813 -0.64063,-0.109375 -0.30469,-0.03906 -0.72656,-0.03906 -0.67969,0 -1.3125,0.304687 -0.63281,0.296875 -1.21875,0.773438 v 6.195312 h -1.46875 v -8.726562 h 1.46875 v 1.289062 q 0.875,-0.703125 1.53906,-0.992187 0.67188,-0.296875 1.36719,-0.296875 0.38281,0 0.55469,0.02344 0.17187,0.01563 0.51562,0.07031 z"
         id="path2859" />
      <path
         d="m 186.95703,63.812129 h -6.42969 q 0,0.804687 0.24219,1.40625 0.24219,0.59375 0.66406,0.976562 0.40625,0.375 0.96094,0.5625 0.5625,0.1875 1.23438,0.1875 0.89062,0 1.78906,-0.351562 0.90625,-0.359375 1.28906,-0.703125 h 0.0781 v 1.601562 q -0.74219,0.3125 -1.51563,0.523438 -0.77344,0.210937 -1.625,0.210937 -2.17187,0 -3.39062,-1.171875 -1.21875,-1.179687 -1.21875,-3.34375 0,-2.140625 1.16406,-3.398437 1.17187,-1.257813 3.07812,-1.257813 1.76563,0 2.71875,1.03125 0.96094,1.03125 0.96094,2.929688 z m -1.42969,-1.125 q -0.008,-1.15625 -0.58593,-1.789063 -0.57032,-0.632812 -1.74219,-0.632812 -1.17969,0 -1.88281,0.695312 -0.69532,0.695313 -0.78907,1.726563 z"
         id="path2861" />
      <path
         d="m 196.26172,71.241816 h -1.46875 v -4.203125 q -0.67969,0.585938 -1.35156,0.875 -0.67188,0.28125 -1.45313,0.28125 -1.55469,0 -2.48437,-1.195312 -0.92188,-1.203125 -0.92188,-3.3125 0,-1.125 0.32031,-1.984375 0.32813,-0.867188 0.85938,-1.453125 0.51562,-0.570313 1.21094,-0.882813 0.69531,-0.3125 1.46875,-0.3125 0.70312,0 1.24218,0.15625 0.54688,0.15625 1.10938,0.460938 l 0.0937,-0.375 h 1.375 z m -1.46875,-5.4375 v -4.9375 q -0.60938,-0.273437 -1.07813,-0.382812 -0.46875,-0.109375 -1.01562,-0.109375 -1.27344,0 -1.9375,0.867187 -0.66406,0.859375 -0.66406,2.375 0,1.53125 0.53125,2.359375 0.53906,0.820313 1.6875,0.820313 0.64062,0 1.28125,-0.273438 0.64062,-0.28125 1.19531,-0.71875 z"
         id="path2863" />
      <path
         d="m 213.34766,64.702754 q 0,0.679687 -0.32032,1.34375 -0.3125,0.664062 -0.88281,1.125 -0.625,0.5 -1.46094,0.78125 -0.82812,0.28125 -2,0.28125 -1.25781,0 -2.26562,-0.234375 -1,-0.234375 -2.03906,-0.695313 v -1.9375 h 0.10937 q 0.88281,0.734375 2.03906,1.132813 1.15625,0.398437 2.17188,0.398437 1.4375,0 2.23437,-0.539062 0.80469,-0.539063 0.80469,-1.4375 0,-0.773438 -0.38281,-1.140625 -0.375,-0.367188 -1.14844,-0.570313 -0.58594,-0.15625 -1.27344,-0.257812 -0.67968,-0.101563 -1.44531,-0.257813 -1.54687,-0.328125 -2.29687,-1.117187 -0.74219,-0.796875 -0.74219,-2.070313 0,-1.460937 1.23437,-2.390625 1.23438,-0.9375 3.13282,-0.9375 1.22656,0 2.25,0.234375 1.02343,0.234375 1.8125,0.578125 v 1.828125 h -0.10938 q -0.66406,-0.5625 -1.75,-0.929687 -1.07812,-0.375 -2.21094,-0.375 -1.24218,0 -2,0.515625 -0.75,0.515625 -0.75,1.328125 0,0.726562 0.375,1.140625 0.375,0.414062 1.32032,0.632812 0.5,0.109375 1.42187,0.265625 0.92188,0.15625 1.5625,0.320313 1.29688,0.34375 1.95313,1.039062 0.65625,0.695313 0.65625,1.945313 z"
         id="path2865" />
      <path
         d="m 223.39453,63.554316 q 0,1.0625 -0.30469,1.945313 -0.30468,0.875 -0.85937,1.484375 -0.51563,0.578125 -1.21875,0.898437 -0.69531,0.3125 -1.47656,0.3125 -0.67969,0 -1.23438,-0.148437 -0.54687,-0.148438 -1.11719,-0.460938 v 3.65625 h -1.46875 V 59.296504 h 1.46875 v 0.914062 q 0.58594,-0.492187 1.3125,-0.820312 0.73438,-0.335938 1.5625,-0.335938 1.57813,0 2.45313,1.195313 0.88281,1.1875 0.88281,3.304687 z m -1.51562,0.03906 q 0,-1.578125 -0.53907,-2.359375 -0.53906,-0.78125 -1.65625,-0.78125 -0.63281,0 -1.27343,0.273437 -0.64063,0.273438 -1.22657,0.71875 v 4.945313 q 0.625,0.28125 1.07032,0.382812 0.45312,0.101563 1.02343,0.101563 1.22657,0 1.91407,-0.828125 0.6875,-0.828125 0.6875,-2.453125 z"
         id="path2867" />
      <path
         d="m 232.46484,68.023066 h -1.46093 v -0.929687 q -0.19532,0.132812 -0.53125,0.375 -0.32813,0.234375 -0.64063,0.375 -0.36719,0.179687 -0.84375,0.296875 -0.47656,0.125 -1.11719,0.125 -1.17968,0 -2,-0.78125 -0.82031,-0.78125 -0.82031,-1.992188 0,-0.992187 0.42188,-1.601562 0.42968,-0.617188 1.21875,-0.96875 0.79687,-0.351563 1.91406,-0.476563 1.11719,-0.125 2.39844,-0.1875 v -0.226562 q 0,-0.5 -0.17969,-0.828125 -0.17188,-0.328125 -0.5,-0.515625 -0.3125,-0.179688 -0.75,-0.242188 -0.4375,-0.0625 -0.91406,-0.0625 -0.57813,0 -1.28907,0.15625 -0.71093,0.148438 -1.46875,0.4375 h -0.0781 v -1.492187 q 0.42969,-0.117188 1.24219,-0.257813 0.8125,-0.140625 1.60156,-0.140625 0.92187,0 1.60156,0.15625 0.6875,0.148438 1.1875,0.515625 0.49219,0.359375 0.75,0.929688 0.25781,0.570312 0.25781,1.414062 z m -1.46093,-2.148437 v -2.429688 q -0.67188,0.03906 -1.58594,0.117188 -0.90625,0.07813 -1.4375,0.226562 -0.63281,0.179688 -1.02344,0.5625 -0.39062,0.375 -0.39062,1.039063 0,0.75 0.45312,1.132812 0.45313,0.375 1.38281,0.375 0.77344,0 1.41407,-0.296875 0.64062,-0.304687 1.1875,-0.726562 z"
         id="path2869" />
      <path
         d="m 242.58984,68.023066 h -1.46875 v -4.96875 q 0,-0.601562 -0.0703,-1.125 -0.0703,-0.53125 -0.25781,-0.828125 -0.19531,-0.328125 -0.5625,-0.484375 -0.36719,-0.164062 -0.95313,-0.164062 -0.60156,0 -1.25781,0.296875 -0.65625,0.296875 -1.25781,0.757812 v 6.515625 h -1.46875 v -8.726562 h 1.46875 v 0.96875 q 0.6875,-0.570313 1.42187,-0.890625 0.73438,-0.320313 1.50782,-0.320313 1.41406,0 2.15625,0.851563 0.74218,0.851562 0.74218,2.453125 z"
         id="path2871" />
    </g>
    <g
       aria-label="Pitch"
       transform="matrix(0.26458333,0,0,0.26458333,-3.0142835,60.595967)"
       id="text53364-45"
       style="font-size:16px;line-height:1.25;-inkscape-font-specification:'sans-serif, Normal';white-space:pre;shape-inside:url(#rect53366-6)">
      <path
         d="m 171.35547,59.905879 q 0,0.773437 -0.27344,1.4375 -0.26562,0.65625 -0.75,1.140625 -0.60156,0.601562 -1.42187,0.90625 -0.82032,0.296875 -2.07032,0.296875 h -1.54687 v 4.335937 h -1.54688 V 56.390254 h 3.15625 q 1.04688,0 1.77344,0.179687 0.72656,0.171875 1.28906,0.546875 0.66407,0.445313 1.02344,1.109375 0.36719,0.664063 0.36719,1.679688 z m -1.60938,0.03906 q 0,-0.601562 -0.21093,-1.046875 -0.21094,-0.445312 -0.64063,-0.726562 -0.375,-0.242188 -0.85937,-0.34375 -0.47657,-0.109375 -1.21094,-0.109375 h -1.53125 v 4.648437 h 1.30469 q 0.9375,0 1.52343,-0.164062 0.58594,-0.171875 0.95313,-0.539063 0.36719,-0.375 0.51562,-0.789062 0.15625,-0.414063 0.15625,-0.929688 z"
         id="path2964" />
      <path
         d="m 174.85547,57.835566 h -1.65625 v -1.523437 h 1.65625 z m -0.0937,10.1875 h -1.46875 v -8.726562 h 1.46875 z"
         id="path2966" />
      <path
         d="m 182.19922,67.944941 q -0.41406,0.109375 -0.90625,0.179688 -0.48438,0.07031 -0.86719,0.07031 -1.33594,0 -2.03125,-0.71875 -0.69531,-0.71875 -0.69531,-2.304687 v -4.640625 h -0.99219 v -1.234375 h 0.99219 v -2.507813 h 1.46875 v 2.507813 h 3.03125 v 1.234375 h -3.03125 v 3.976562 q 0,0.6875 0.0312,1.078125 0.0312,0.382813 0.21875,0.71875 0.17187,0.3125 0.46875,0.460938 0.30469,0.140625 0.92187,0.140625 0.35938,0 0.75,-0.101563 0.39063,-0.109375 0.5625,-0.179687 h 0.0781 z"
         id="path2968" />
      <path
         d="m 190.42578,67.476191 q -0.73437,0.351563 -1.39844,0.546875 -0.65625,0.195313 -1.39843,0.195313 -0.94532,0 -1.73438,-0.273438 -0.78906,-0.28125 -1.35156,-0.84375 -0.57031,-0.5625 -0.88281,-1.421875 -0.3125,-0.859375 -0.3125,-2.007812 0,-2.140625 1.17187,-3.359375 1.17969,-1.21875 3.10938,-1.21875 0.75,0 1.46875,0.210937 0.72656,0.210938 1.32812,0.515625 v 1.632813 h -0.0781 q -0.67188,-0.523438 -1.39063,-0.804688 -0.71094,-0.28125 -1.39062,-0.28125 -1.25,0 -1.97657,0.84375 -0.71875,0.835938 -0.71875,2.460938 0,1.578125 0.70313,2.429687 0.71094,0.84375 1.99219,0.84375 0.44531,0 0.90625,-0.117187 0.46093,-0.117188 0.82812,-0.304688 0.32031,-0.164062 0.60156,-0.34375 0.28125,-0.1875 0.44532,-0.320312 h 0.0781 z"
         id="path2970" />
      <path
         d="m 199.60547,68.023066 h -1.46875 v -4.96875 q 0,-0.601562 -0.0703,-1.125 -0.0703,-0.53125 -0.25782,-0.828125 -0.19531,-0.328125 -0.5625,-0.484375 -0.36718,-0.164062 -0.95312,-0.164062 -0.60156,0 -1.25781,0.296875 -0.65625,0.296875 -1.25782,0.757812 v 6.515625 h -1.46875 v -12.15625 h 1.46875 v 4.398438 q 0.6875,-0.570313 1.42188,-0.890625 0.73437,-0.320313 1.50781,-0.320313 1.41406,0 2.15625,0.851563 0.74219,0.851562 0.74219,2.453125 z"
         id="path2972" />
    </g>
    <g
       aria-label="Gain"
       transform="matrix(0.26458333,0,0,0.26458333,-2.8385836,89.353314)"
       id="text53364-44"
       style="font-size:16px;line-height:1.25;-inkscape-font-specification:'sans-serif, Normal';white-space:pre;shape-inside:url(#rect53366-06)">
      <path
         d="m 173.44922,67.163691 q -0.95313,0.4375 -2.08594,0.765625 -1.125,0.320313 -2.17969,0.320313 -1.35937,0 -2.49218,-0.375 -1.13282,-0.375 -1.92969,-1.125 -0.80469,-0.757813 -1.24219,-1.890625 -0.4375,-1.140625 -0.4375,-2.664063 0,-2.789062 1.625,-4.398437 1.63281,-1.617188 4.47656,-1.617188 0.99219,0 2.02344,0.242188 1.03906,0.234375 2.23438,0.804687 v 1.835938 h -0.14063 q -0.24219,-0.1875 -0.70312,-0.492188 -0.46094,-0.304687 -0.90625,-0.507812 -0.53907,-0.242188 -1.22657,-0.398438 -0.67968,-0.164062 -1.54687,-0.164062 -1.95313,0 -3.09375,1.257812 -1.13281,1.25 -1.13281,3.390625 0,2.257813 1.1875,3.515625 1.1875,1.25 3.23437,1.25 0.75,0 1.49219,-0.148437 0.75,-0.148438 1.3125,-0.382813 v -2.851562 h -3.11719 v -1.359375 h 4.64844 z"
         id="path3094" />
      <path
         d="m 182.81641,68.023066 h -1.46094 v -0.929687 q -0.19531,0.132812 -0.53125,0.375 -0.32813,0.234375 -0.64063,0.375 -0.36718,0.179687 -0.84375,0.296875 -0.47656,0.125 -1.11718,0.125 -1.17969,0 -2,-0.78125 -0.82032,-0.78125 -0.82032,-1.992188 0,-0.992187 0.42188,-1.601562 0.42969,-0.617188 1.21875,-0.96875 0.79687,-0.351563 1.91406,-0.476563 1.11719,-0.125 2.39844,-0.1875 v -0.226562 q 0,-0.5 -0.17969,-0.828125 -0.17187,-0.328125 -0.5,-0.515625 -0.3125,-0.179688 -0.75,-0.242188 -0.4375,-0.0625 -0.91406,-0.0625 -0.57813,0 -1.28906,0.15625 -0.71094,0.148438 -1.46875,0.4375 h -0.0781 v -1.492187 q 0.42969,-0.117188 1.24219,-0.257813 0.8125,-0.140625 1.60156,-0.140625 0.92188,0 1.60156,0.15625 0.6875,0.148438 1.1875,0.515625 0.49219,0.359375 0.75,0.929688 0.25782,0.570312 0.25782,1.414062 z m -1.46094,-2.148437 v -2.429688 q -0.67188,0.03906 -1.58594,0.117188 -0.90625,0.07813 -1.4375,0.226562 -0.63281,0.179688 -1.02344,0.5625 -0.39062,0.375 -0.39062,1.039063 0,0.75 0.45312,1.132812 0.45313,0.375 1.38282,0.375 0.77343,0 1.41406,-0.296875 0.64062,-0.304687 1.1875,-0.726562 z"
         id="path3096" />
      <path
         d="m 187.22266,57.835566 h -1.65625 v -1.523437 h 1.65625 z m -0.0937,10.1875 h -1.46875 v -8.726562 h 1.46875 z"
         id="path3098" />
      <path
         d="m 197.33203,68.023066 h -1.46875 v -4.96875 q 0,-0.601562 -0.0703,-1.125 -0.0703,-0.53125 -0.25781,-0.828125 -0.19532,-0.328125 -0.5625,-0.484375 -0.36719,-0.164062 -0.95313,-0.164062 -0.60156,0 -1.25781,0.296875 -0.65625,0.296875 -1.25781,0.757812 v 6.515625 h -1.46875 v -8.726562 h 1.46875 v 0.96875 q 0.6875,-0.570313 1.42187,-0.890625 0.73438,-0.320313 1.50781,-0.320313 1.41407,0 2.15625,0.851563 0.74219,0.851562 0.74219,2.453125 z"
         id="path3100" />
    </g>
    <g
       aria-label="Robot"
       transform="matrix(0.26458333,0,0,0.26458333,12.750142,64.056333)"
       id="text53364-9"
       style="font-size:16px;line-height:1.25;-inkscape-font-specification:'sans-serif, Normal';white-space:pre;shape-inside:url(#rect53366-69)">
      <path
         d="m 173.37109,68.023066 h -2.00781 l -3.89062,-4.625 h -2.17969 v 4.625 h -1.54688 V 56.390254 h 3.25782 q 1.05468,0 1.75781,0.140625 0.70312,0.132812 1.26562,0.484375 0.63282,0.398437 0.98438,1.007812 0.35937,0.601563 0.35937,1.53125 0,1.257813 -0.63281,2.109375 -0.63281,0.84375 -1.74219,1.273438 z m -3.61718,-8.359375 q 0,-0.5 -0.17969,-0.882812 -0.17188,-0.390625 -0.57813,-0.65625 -0.33593,-0.226563 -0.79687,-0.3125 -0.46094,-0.09375 -1.08594,-0.09375 h -1.82031 v 4.390625 h 1.5625 q 0.73437,0 1.28125,-0.125 0.54687,-0.132813 0.92969,-0.484375 0.35156,-0.328125 0.51562,-0.75 0.17188,-0.429688 0.17188,-1.085938 z"
         id="path3028" />
      <path
         d="m 181.80078,63.663691 q 0,2.132813 -1.09375,3.367188 -1.09375,1.234375 -2.92969,1.234375 -1.85156,0 -2.94531,-1.234375 -1.08594,-1.234375 -1.08594,-3.367188 0,-2.132812 1.08594,-3.367187 1.09375,-1.242188 2.94531,-1.242188 1.83594,0 2.92969,1.242188 1.09375,1.234375 1.09375,3.367187 z m -1.51562,0 q 0,-1.695312 -0.66407,-2.515625 -0.66406,-0.828125 -1.84375,-0.828125 -1.19531,0 -1.85937,0.828125 -0.65625,0.820313 -0.65625,2.515625 0,1.640625 0.66406,2.492188 0.66406,0.84375 1.85156,0.84375 1.17188,0 1.83594,-0.835938 0.67188,-0.84375 0.67188,-2.5 z"
         id="path3030" />
      <path
         d="m 191.75391,63.593379 q 0,1.09375 -0.3125,1.96875 -0.30469,0.875 -0.82813,1.46875 -0.55469,0.617187 -1.21875,0.929687 -0.66406,0.304688 -1.46094,0.304688 -0.74218,0 -1.29687,-0.179688 -0.55469,-0.171875 -1.09375,-0.46875 l -0.0937,0.40625 h -1.375 v -12.15625 h 1.46875 v 4.34375 q 0.61719,-0.507812 1.3125,-0.828125 0.69531,-0.328125 1.5625,-0.328125 1.54687,0 2.4375,1.1875 0.89844,1.1875 0.89844,3.351563 z m -1.51563,0.03906 q 0,-1.5625 -0.51562,-2.367187 -0.51563,-0.8125 -1.66407,-0.8125 -0.64062,0 -1.29687,0.28125 -0.65625,0.273437 -1.21875,0.710937 v 5 q 0.625,0.28125 1.07031,0.390625 0.45313,0.109375 1.02344,0.109375 1.21875,0 1.90625,-0.796875 0.69531,-0.804687 0.69531,-2.515625 z"
         id="path3032" />
      <path
         d="m 201.48047,63.663691 q 0,2.132813 -1.09375,3.367188 -1.09375,1.234375 -2.92969,1.234375 -1.85156,0 -2.94531,-1.234375 -1.08594,-1.234375 -1.08594,-3.367188 0,-2.132812 1.08594,-3.367187 1.09375,-1.242188 2.94531,-1.242188 1.83594,0 2.92969,1.242188 1.09375,1.234375 1.09375,3.367187 z m -1.51563,0 q 0,-1.695312 -0.66406,-2.515625 -0.66406,-0.828125 -1.84375,-0.828125 -1.19531,0 -1.85937,0.828125 -0.65625,0.820313 -0.65625,2.515625 0,1.640625 0.66406,2.492188 0.66406,0.84375 1.85156,0.84375 1.17188,0 1.83594,-0.835938 0.67187,-0.84375 0.67187,-2.5 z"
         id="path3034" />
      <path
         d="m 208.28516,67.944941 q -0.41407,0.109375 -0.90625,0.179688 -0.48438,0.07031 -0.86719,0.07031 -1.33594,0 -2.03125,-0.71875 -0.69531,-0.71875 -0.69531,-2.304687 v -4.640625 h -0.99219 v -1.234375 h 0.99219 v -2.507813 h 1.46875 v 2.507813 h 3.03125 v 1.234375 h -3.03125 v 3.976562 q 0,0.6875 0.0312,1.078125 0.0312,0.382813 0.21875,0.71875 0.17187,0.3125 0.46875,0.460938 0.30468,0.140625 0.92187,0.140625 0.35938,0 0.75,-0.101563 0.39063,-0.109375 0.5625,-0.179687 h 0.0781 z"
         id="path3036" />
    </g>
    <g
       aria-label="Frame Drop"
       transform="matrix(0.26458333,0,0,0.26458333,-3.0142835,78.251953)"
       id="text53364-96"
       style="font-size:16px;line-height:1.25;-inkscape-font-specification:'sans-serif, Normal';white-space:pre;shape-inside:url(#rect53366-7)">
      <path
         d="m 171.17578,57.765254 h -5.88281 v 3.28125 h 5.05469 v 1.375 h -5.05469 v 5.601562 h -1.54688 V 56.390254 h 7.42969 z"
         id="path3057" />
      <path
         d="m 178.26953,60.898066 h -0.0781 q -0.32813,-0.07813 -0.64063,-0.109375 -0.30469,-0.03906 -0.72656,-0.03906 -0.67969,0 -1.3125,0.304687 -0.63281,0.296875 -1.21875,0.773438 v 6.195312 h -1.46875 v -8.726562 h 1.46875 v 1.289062 q 0.875,-0.703125 1.53906,-0.992187 0.67188,-0.296875 1.36719,-0.296875 0.38281,0 0.55469,0.02344 0.17187,0.01563 0.51562,0.07031 z"
         id="path3059" />
      <path
         d="m 186.15234,68.023066 h -1.46093 v -0.929687 q -0.19532,0.132812 -0.53125,0.375 -0.32813,0.234375 -0.64063,0.375 -0.36719,0.179687 -0.84375,0.296875 -0.47656,0.125 -1.11719,0.125 -1.17968,0 -2,-0.78125 -0.82031,-0.78125 -0.82031,-1.992188 0,-0.992187 0.42188,-1.601562 0.42968,-0.617188 1.21875,-0.96875 0.79687,-0.351563 1.91406,-0.476563 1.11719,-0.125 2.39844,-0.1875 v -0.226562 q 0,-0.5 -0.17969,-0.828125 -0.17188,-0.328125 -0.5,-0.515625 -0.3125,-0.179688 -0.75,-0.242188 -0.4375,-0.0625 -0.91406,-0.0625 -0.57813,0 -1.28907,0.15625 -0.71093,0.148438 -1.46875,0.4375 h -0.0781 v -1.492187 q 0.42969,-0.117188 1.24219,-0.257813 0.8125,-0.140625 1.60156,-0.140625 0.92187,0 1.60156,0.15625 0.6875,0.148438 1.1875,0.515625 0.49219,0.359375 0.75,0.929688 0.25781,0.570312 0.25781,1.414062 z m -1.46093,-2.148437 v -2.429688 q -0.67188,0.03906 -1.58594,0.117188 -0.90625,0.07813 -1.4375,0.226562 -0.63281,0.179688 -1.02344,0.5625 -0.39062,0.375 -0.39062,1.039063 0,0.75 0.45312,1.132812 0.45313,0.375 1.38281,0.375 0.77344,0 1.41407,-0.296875 0.64062,-0.304687 1.1875,-0.726562 z"
         id="path3061" />
      <path
         d="m 201.71484,68.023066 h -1.46875 v -4.96875 q 0,-0.5625 -0.0547,-1.085937 -0.0469,-0.523438 -0.21094,-0.835938 -0.17969,-0.335937 -0.51563,-0.507812 -0.33593,-0.171875 -0.96875,-0.171875 -0.61718,0 -1.23437,0.3125 -0.61719,0.304687 -1.23438,0.78125 0.0234,0.179687 0.0391,0.421875 0.0156,0.234375 0.0156,0.46875 v 5.585937 h -1.46875 v -4.96875 q 0,-0.578125 -0.0547,-1.09375 -0.0469,-0.523437 -0.21093,-0.835937 -0.17969,-0.335938 -0.51563,-0.5 -0.33594,-0.171875 -0.96875,-0.171875 -0.60156,0 -1.21094,0.296875 -0.60156,0.296875 -1.20312,0.757812 v 6.515625 h -1.46875 v -8.726562 h 1.46875 v 0.96875 q 0.6875,-0.570313 1.36719,-0.890625 0.6875,-0.320313 1.46093,-0.320313 0.89063,0 1.50782,0.375 0.625,0.375 0.92968,1.039063 0.89063,-0.75 1.625,-1.078125 0.73438,-0.335938 1.57032,-0.335938 1.4375,0 2.11718,0.875 0.6875,0.867188 0.6875,2.429688 z"
         id="path3063" />
      <path
         d="m 211.84766,63.812129 h -6.42969 q 0,0.804687 0.24219,1.40625 0.24218,0.59375 0.66406,0.976562 0.40625,0.375 0.96094,0.5625 0.5625,0.1875 1.23437,0.1875 0.89063,0 1.78906,-0.351562 0.90625,-0.359375 1.28907,-0.703125 h 0.0781 v 1.601562 q -0.74219,0.3125 -1.51562,0.523438 -0.77344,0.210937 -1.625,0.210937 -2.17188,0 -3.39063,-1.171875 -1.21875,-1.179687 -1.21875,-3.34375 0,-2.140625 1.16406,-3.398437 1.17188,-1.257813 3.07813,-1.257813 1.76562,0 2.71875,1.03125 0.96094,1.03125 0.96094,2.929688 z m -1.42969,-1.125 q -0.008,-1.15625 -0.58594,-1.789063 -0.57031,-0.632812 -1.74219,-0.632812 -1.17968,0 -1.88281,0.695312 -0.69531,0.695313 -0.78906,1.726563 z"
         id="path3065" />
      <path
         d="m 229.64453,62.218379 q 0,1.585937 -0.69531,2.875 -0.6875,1.289062 -1.83594,2 -0.79687,0.492187 -1.78125,0.710937 -0.97656,0.21875 -2.57812,0.21875 h -2.9375 V 56.390254 h 2.90625 q 1.70312,0 2.70312,0.25 1.00781,0.242187 1.70313,0.671875 1.1875,0.742187 1.85156,1.976562 0.66406,1.234375 0.66406,2.929688 z m -1.61719,-0.02344 q 0,-1.367187 -0.47656,-2.304687 -0.47656,-0.9375 -1.42187,-1.476563 -0.6875,-0.390625 -1.46094,-0.539062 -0.77344,-0.15625 -1.85156,-0.15625 h -1.45313 v 8.976562 h 1.45313 q 1.11718,0 1.94531,-0.164062 0.83594,-0.164063 1.53125,-0.609375 0.86719,-0.554688 1.29687,-1.460938 0.4375,-0.90625 0.4375,-2.265625 z"
         id="path3067" />
      <path
         d="m 237.47266,60.898066 h -0.0781 q -0.32812,-0.07813 -0.64062,-0.109375 -0.30469,-0.03906 -0.72657,-0.03906 -0.67968,0 -1.3125,0.304687 -0.63281,0.296875 -1.21875,0.773438 v 6.195312 h -1.46875 v -8.726562 h 1.46875 v 1.289062 q 0.875,-0.703125 1.53907,-0.992187 0.67187,-0.296875 1.36718,-0.296875 0.38282,0 0.55469,0.02344 0.17188,0.01563 0.51563,0.07031 z"
         id="path3069" />
      <path
         d="m 246.29297,63.663691 q 0,2.132813 -1.09375,3.367188 -1.09375,1.234375 -2.92969,1.234375 -1.85156,0 -2.94531,-1.234375 -1.08594,-1.234375 -1.08594,-3.367188 0,-2.132812 1.08594,-3.367187 1.09375,-1.242188 2.94531,-1.242188 1.83594,0 2.92969,1.242188 1.09375,1.234375 1.09375,3.367187 z m -1.51563,0 q 0,-1.695312 -0.66406,-2.515625 -0.66406,-0.828125 -1.84375,-0.828125 -1.19531,0 -1.85937,0.828125 -0.65625,0.820313 -0.65625,2.515625 0,1.640625 0.66406,2.492188 0.66406,0.84375 1.85156,0.84375 1.17188,0 1.83594,-0.835938 0.67187,-0.84375 0.67187,-2.5 z"
         id="path3071" />
      <path
         d="m 256.24609,63.554316 q 0,1.0625 -0.30468,1.945313 -0.30469,0.875 -0.85938,1.484375 -0.51562,0.578125 -1.21875,0.898437 -0.69531,0.3125 -1.47656,0.3125 -0.67969,0 -1.23438,-0.148437 -0.54687,-0.148438 -1.11718,-0.460938 v 3.65625 h -1.46875 V 59.296504 h 1.46875 v 0.914062 q 0.58593,-0.492187 1.3125,-0.820312 0.73437,-0.335938 1.5625,-0.335938 1.57812,0 2.45312,1.195313 0.88281,1.1875 0.88281,3.304687 z m -1.51562,0.03906 q 0,-1.578125 -0.53906,-2.359375 -0.53907,-0.78125 -1.65625,-0.78125 -0.63282,0 -1.27344,0.273437 -0.64063,0.273438 -1.22656,0.71875 v 4.945313 q 0.625,0.28125 1.07031,0.382812 0.45312,0.101563 1.02344,0.101563 1.22656,0 1.91406,-0.828125 0.6875,-0.828125 0.6875,-2.453125 z"
         id="path3073" />
    </g>
    <g
       aria-label="Buffer Length"
       transform="matrix(0.26458333,0,0,0.26458333,-3.0142835,-2.9808662)"
       id="text53364-5"
       style="font-size:16px;line-height:1.25;-inkscape-font-specification:'sans-serif, Normal';white-space:pre;shape-inside:url(#rect53366-3);display:inline">
      <path
         d="m 172.51953,64.444941 q 0,0.867188 -0.32812,1.53125 -0.32813,0.664063 -0.88282,1.09375 -0.65625,0.515625 -1.44531,0.734375 -0.78125,0.21875 -1.99219,0.21875 h -4.125 V 56.390254 h 3.44532 q 1.27343,0 1.90625,0.09375 0.63281,0.09375 1.21093,0.390625 0.64063,0.335937 0.92969,0.867187 0.28906,0.523438 0.28906,1.257813 0,0.828125 -0.42187,1.414062 -0.42188,0.578125 -1.125,0.929688 v 0.0625 q 1.17969,0.242187 1.85937,1.039062 0.67969,0.789063 0.67969,2 z m -2.60156,-5.242187 q 0,-0.421875 -0.14063,-0.710938 -0.14062,-0.289062 -0.45312,-0.46875 -0.36719,-0.210937 -0.89063,-0.257812 -0.52343,-0.05469 -1.29687,-0.05469 h -1.84375 v 3.359375 h 2 q 0.72656,0 1.15625,-0.07031 0.42969,-0.07813 0.79687,-0.3125 0.36719,-0.234375 0.51563,-0.601563 0.15625,-0.375 0.15625,-0.882812 z m 0.99219,5.304687 q 0,-0.703125 -0.21094,-1.117187 -0.21094,-0.414063 -0.76563,-0.703125 -0.375,-0.195313 -0.91406,-0.25 -0.53125,-0.0625 -1.29687,-0.0625 h -2.42969 v 4.328125 h 2.04687 q 1.01563,0 1.66407,-0.101563 0.64843,-0.109375 1.0625,-0.390625 0.4375,-0.304687 0.64062,-0.695312 0.20313,-0.390625 0.20313,-1.007813 z"
         id="path2746" />
      <path
         d="m 181.83203,68.023066 h -1.46875 v -0.96875 q -0.74219,0.585938 -1.42187,0.898438 -0.67969,0.3125 -1.5,0.3125 -1.375,0 -2.14063,-0.835938 -0.76562,-0.84375 -0.76562,-2.46875 v -5.664062 h 1.46875 v 4.96875 q 0,0.664062 0.0625,1.140625 0.0625,0.46875 0.26562,0.804687 0.21094,0.34375 0.54688,0.5 0.33593,0.15625 0.97656,0.15625 0.57031,0 1.24219,-0.296875 0.67968,-0.296875 1.26562,-0.757812 v -6.515625 h 1.46875 z"
         id="path2748" />
      <path
         d="m 189.41797,57.288691 h -0.0781 q -0.24218,-0.07031 -0.63281,-0.140625 -0.39062,-0.07813 -0.6875,-0.07813 -0.94531,0 -1.375,0.421875 -0.42187,0.414063 -0.42187,1.507813 v 0.296875 h 2.64843 v 1.234375 h -2.60156 v 7.492187 h -1.46875 v -7.492187 h -0.99219 v -1.234375 h 0.99219 v -0.289063 q 0,-1.554687 0.77344,-2.382812 0.77344,-0.835938 2.23437,-0.835938 0.49219,0 0.88282,0.04687 0.39843,0.04687 0.72656,0.109375 z"
         id="path2750" />
      <path
         d="m 195.04297,57.288691 h -0.0781 q -0.24218,-0.07031 -0.63281,-0.140625 -0.39062,-0.07813 -0.6875,-0.07813 -0.94531,0 -1.375,0.421875 -0.42187,0.414063 -0.42187,1.507813 v 0.296875 h 2.64843 v 1.234375 h -2.60156 v 7.492187 h -1.46875 v -7.492187 h -0.99219 v -1.234375 h 0.99219 v -0.289063 q 0,-1.554687 0.77344,-2.382812 0.77344,-0.835938 2.23437,-0.835938 0.49219,0 0.88282,0.04687 0.39843,0.04687 0.72656,0.109375 z"
         id="path2752" />
      <path
         d="m 203.27734,63.812129 h -6.42968 q 0,0.804687 0.24218,1.40625 0.24219,0.59375 0.66407,0.976562 0.40625,0.375 0.96093,0.5625 0.5625,0.1875 1.23438,0.1875 0.89062,0 1.78906,-0.351562 0.90625,-0.359375 1.28906,-0.703125 h 0.0781 v 1.601562 q -0.74219,0.3125 -1.51563,0.523438 -0.77343,0.210937 -1.625,0.210937 -2.17187,0 -3.39062,-1.171875 -1.21875,-1.179687 -1.21875,-3.34375 0,-2.140625 1.16406,-3.398437 1.17188,-1.257813 3.07813,-1.257813 1.76562,0 2.71875,1.03125 0.96093,1.03125 0.96093,2.929688 z m -1.42968,-1.125 q -0.008,-1.15625 -0.58594,-1.789063 -0.57031,-0.632812 -1.74219,-0.632812 -1.17969,0 -1.88281,0.695312 -0.69531,0.695313 -0.78906,1.726563 z"
         id="path2754" />
      <path
         d="m 210.94922,60.898066 h -0.0781 q -0.32812,-0.07813 -0.64062,-0.109375 -0.30469,-0.03906 -0.72656,-0.03906 -0.67969,0 -1.3125,0.304687 -0.63282,0.296875 -1.21875,0.773438 v 6.195312 h -1.46875 v -8.726562 h 1.46875 v 1.289062 q 0.875,-0.703125 1.53906,-0.992187 0.67187,-0.296875 1.36719,-0.296875 0.38281,0 0.55468,0.02344 0.17188,0.01563 0.51563,0.07031 z"
         id="path2756" />
      <path
         d="m 225.43359,68.023066 h -7.35937 V 56.390254 h 1.54687 v 10.257812 h 5.8125 z"
         id="path2758" />
      <path
         d="m 234.16797,63.812129 h -6.42969 q 0,0.804687 0.24219,1.40625 0.24219,0.59375 0.66406,0.976562 0.40625,0.375 0.96094,0.5625 0.5625,0.1875 1.23437,0.1875 0.89063,0 1.78907,-0.351562 0.90625,-0.359375 1.28906,-0.703125 h 0.0781 v 1.601562 q -0.74218,0.3125 -1.51562,0.523438 -0.77344,0.210937 -1.625,0.210937 -2.17188,0 -3.39063,-1.171875 -1.21875,-1.179687 -1.21875,-3.34375 0,-2.140625 1.16407,-3.398437 1.17187,-1.257813 3.07812,-1.257813 1.76563,0 2.71875,1.03125 0.96094,1.03125 0.96094,2.929688 z m -1.42969,-1.125 q -0.008,-1.15625 -0.58594,-1.789063 -0.57031,-0.632812 -1.74218,-0.632812 -1.17969,0 -1.88282,0.695312 -0.69531,0.695313 -0.78906,1.726563 z"
         id="path2760" />
      <path
         d="m 243.69141,68.023066 h -1.46875 v -4.96875 q 0,-0.601562 -0.0703,-1.125 -0.0703,-0.53125 -0.25781,-0.828125 -0.19531,-0.328125 -0.5625,-0.484375 -0.36719,-0.164062 -0.95312,-0.164062 -0.60157,0 -1.25782,0.296875 -0.65625,0.296875 -1.25781,0.757812 v 6.515625 h -1.46875 v -8.726562 h 1.46875 v 0.96875 q 0.6875,-0.570313 1.42188,-0.890625 0.73437,-0.320313 1.50781,-0.320313 1.41406,0 2.15625,0.851563 0.74219,0.851562 0.74219,2.453125 z"
         id="path2762" />
      <path
         d="m 253.59766,67.030879 q 0,2.21875 -1.00782,3.257812 -1.00781,1.039063 -3.10156,1.039063 -0.69531,0 -1.35937,-0.101563 -0.65625,-0.09375 -1.29688,-0.273437 v -1.5 h 0.0781 q 0.35937,0.140625 1.14062,0.34375 0.78125,0.210937 1.5625,0.210937 0.75,0 1.24219,-0.179687 0.49219,-0.179688 0.76562,-0.5 0.27344,-0.304688 0.39063,-0.734375 0.11719,-0.429688 0.11719,-0.960938 v -0.796875 q -0.66407,0.53125 -1.27344,0.796875 -0.60156,0.257813 -1.53906,0.257813 -1.5625,0 -2.48438,-1.125 -0.91406,-1.132813 -0.91406,-3.1875 0,-1.125 0.3125,-1.9375 0.32031,-0.820313 0.86719,-1.414063 0.50781,-0.554687 1.23437,-0.859375 0.72656,-0.3125 1.44531,-0.3125 0.75782,0 1.26563,0.15625 0.51562,0.148438 1.08594,0.460938 l 0.0937,-0.375 h 1.375 z m -1.46875,-1.40625 v -4.757813 q -0.58594,-0.265625 -1.09375,-0.375 -0.5,-0.117187 -1,-0.117187 -1.21094,0 -1.90625,0.8125 -0.69532,0.8125 -0.69532,2.359375 0,1.46875 0.51563,2.226562 0.51562,0.757813 1.71094,0.757813 0.64062,0 1.28125,-0.242188 0.64843,-0.25 1.1875,-0.664062 z"
         id="path2764" />
      <path
         d="m 261.01953,67.944941 q -0.41406,0.109375 -0.90625,0.179688 -0.48437,0.07031 -0.86719,0.07031 -1.33593,0 -2.03125,-0.71875 -0.69531,-0.71875 -0.69531,-2.304687 v -4.640625 h -0.99219 v -1.234375 h 0.99219 v -2.507813 h 1.46875 v 2.507813 h 3.03125 v 1.234375 h -3.03125 v 3.976562 q 0,0.6875 0.0312,1.078125 0.0312,0.382813 0.21875,0.71875 0.17188,0.3125 0.46875,0.460938 0.30469,0.140625 0.92188,0.140625 0.35937,0 0.75,-0.101563 0.39062,-0.109375 0.5625,-0.179687 h 0.0781 z"
         id="path2766" />
      <path
         d="m 270.08984,68.023066 h -1.46875 v -4.96875 q 0,-0.601562 -0.0703,-1.125 -0.0703,-0.53125 -0.25781,-0.828125 -0.19531,-0.328125 -0.5625,-0.484375 -0.36719,-0.164062 -0.95313,-0.164062 -0.60156,0 -1.25781,0.296875 -0.65625,0.296875 -1.25781,0.757812 v 6.515625 h -1.46875 v -12.15625 h 1.46875 v 4.398438 q 0.6875,-0.570313 1.42187,-0.890625 0.73438,-0.320313 1.50782,-0.320313 1.41406,0 2.15625,0.851563 0.74218,0.851562 0.74218,2.453125 z"
         id="path2768" />
    </g>
    <g
       aria-label="Playback Pos"
       transform="matrix(0.26458333,0,0,0.26458333,-3.0142835,7.7498005)"
       id="text53364-1"
       style="font-size:16px;line-height:1.25;-inkscape-font-specification:'sans-serif, Normal';white-space:pre;shape-inside:url(#rect53366-4);display:inline">
      <path
         d="m 171.35547,59.905879 q 0,0.773437 -0.27344,1.4375 -0.26562,0.65625 -0.75,1.140625 -0.60156,0.601562 -1.42187,0.90625 -0.82032,0.296875 -2.07032,0.296875 h -1.54687 v 4.335937 h -1.54688 V 56.390254 h 3.15625 q 1.04688,0 1.77344,0.179687 0.72656,0.171875 1.28906,0.546875 0.66407,0.445313 1.02344,1.109375 0.36719,0.664063 0.36719,1.679688 z m -1.60938,0.03906 q 0,-0.601562 -0.21093,-1.046875 -0.21094,-0.445312 -0.64063,-0.726562 -0.375,-0.242188 -0.85937,-0.34375 -0.47657,-0.109375 -1.21094,-0.109375 h -1.53125 v 4.648437 h 1.30469 q 0.9375,0 1.52343,-0.164062 0.58594,-0.171875 0.95313,-0.539063 0.36719,-0.375 0.51562,-0.789062 0.15625,-0.414063 0.15625,-0.929688 z"
         id="path2789" />
      <path
         d="m 174.76172,68.023066 h -1.46875 v -12.15625 h 1.46875 z"
         id="path2791" />
      <path
         d="m 184.44922,68.023066 h -1.46094 v -0.929687 q -0.19531,0.132812 -0.53125,0.375 -0.32812,0.234375 -0.64062,0.375 -0.36719,0.179687 -0.84375,0.296875 -0.47657,0.125 -1.11719,0.125 -1.17969,0 -2,-0.78125 -0.82031,-0.78125 -0.82031,-1.992188 0,-0.992187 0.42187,-1.601562 0.42969,-0.617188 1.21875,-0.96875 0.79688,-0.351563 1.91406,-0.476563 1.11719,-0.125 2.39844,-0.1875 v -0.226562 q 0,-0.5 -0.17969,-0.828125 -0.17187,-0.328125 -0.5,-0.515625 -0.3125,-0.179688 -0.75,-0.242188 -0.4375,-0.0625 -0.91406,-0.0625 -0.57812,0 -1.28906,0.15625 -0.71094,0.148438 -1.46875,0.4375 h -0.0781 v -1.492187 q 0.42969,-0.117188 1.24219,-0.257813 0.8125,-0.140625 1.60156,-0.140625 0.92188,0 1.60157,0.15625 0.6875,0.148438 1.1875,0.515625 0.49218,0.359375 0.75,0.929688 0.25781,0.570312 0.25781,1.414062 z m -1.46094,-2.148437 v -2.429688 q -0.67187,0.03906 -1.58594,0.117188 -0.90625,0.07813 -1.4375,0.226562 -0.63281,0.179688 -1.02343,0.5625 -0.39063,0.375 -0.39063,1.039063 0,0.75 0.45313,1.132812 0.45312,0.375 1.38281,0.375 0.77344,0 1.41406,-0.296875 0.64063,-0.304687 1.1875,-0.726562 z"
         id="path2793" />
      <path
         d="m 194.69922,59.296504 -5.09375,11.945312 h -1.57031 l 1.625,-3.640625 -3.47657,-8.304687 h 1.59375 l 2.67969,6.46875 2.70313,-6.46875 z"
         id="path2795" />
      <path
         d="m 204.30078,63.593379 q 0,1.09375 -0.3125,1.96875 -0.30469,0.875 -0.82812,1.46875 -0.55469,0.617187 -1.21875,0.929687 -0.66407,0.304688 -1.46094,0.304688 -0.74219,0 -1.29688,-0.179688 -0.55468,-0.171875 -1.09375,-0.46875 l -0.0937,0.40625 h -1.375 v -12.15625 h 1.46875 v 4.34375 q 0.61719,-0.507812 1.3125,-0.828125 0.69532,-0.328125 1.5625,-0.328125 1.54688,0 2.4375,1.1875 0.89844,1.1875 0.89844,3.351563 z m -1.51562,0.03906 q 0,-1.5625 -0.51563,-2.367187 -0.51562,-0.8125 -1.66406,-0.8125 -0.64063,0 -1.29688,0.28125 -0.65625,0.273437 -1.21875,0.710937 v 5 q 0.625,0.28125 1.07032,0.390625 0.45312,0.109375 1.02343,0.109375 1.21875,0 1.90625,-0.796875 0.69532,-0.804687 0.69532,-2.515625 z"
         id="path2797" />
      <path
         d="m 213.37109,68.023066 h -1.46093 v -0.929687 q -0.19532,0.132812 -0.53125,0.375 -0.32813,0.234375 -0.64063,0.375 -0.36719,0.179687 -0.84375,0.296875 -0.47656,0.125 -1.11719,0.125 -1.17968,0 -2,-0.78125 -0.82031,-0.78125 -0.82031,-1.992188 0,-0.992187 0.42188,-1.601562 0.42968,-0.617188 1.21875,-0.96875 0.79687,-0.351563 1.91406,-0.476563 1.11719,-0.125 2.39844,-0.1875 v -0.226562 q 0,-0.5 -0.17969,-0.828125 -0.17188,-0.328125 -0.5,-0.515625 -0.3125,-0.179688 -0.75,-0.242188 -0.4375,-0.0625 -0.91406,-0.0625 -0.57813,0 -1.28907,0.15625 -0.71093,0.148438 -1.46875,0.4375 h -0.0781 v -1.492187 q 0.42969,-0.117188 1.24219,-0.257813 0.8125,-0.140625 1.60156,-0.140625 0.92187,0 1.60156,0.15625 0.6875,0.148438 1.1875,0.515625 0.49219,0.359375 0.75,0.929688 0.25781,0.570312 0.25781,1.414062 z m -1.46093,-2.148437 v -2.429688 q -0.67188,0.03906 -1.58594,0.117188 -0.90625,0.07813 -1.4375,0.226562 -0.63281,0.179688 -1.02344,0.5625 -0.39062,0.375 -0.39062,1.039063 0,0.75 0.45312,1.132812 0.45313,0.375 1.38281,0.375 0.77344,0 1.41407,-0.296875 0.64062,-0.304687 1.1875,-0.726562 z"
         id="path2799" />
      <path
         d="m 222.65234,67.476191 q -0.73437,0.351563 -1.39843,0.546875 -0.65625,0.195313 -1.39844,0.195313 -0.94531,0 -1.73438,-0.273438 -0.78906,-0.28125 -1.35156,-0.84375 -0.57031,-0.5625 -0.88281,-1.421875 -0.3125,-0.859375 -0.3125,-2.007812 0,-2.140625 1.17187,-3.359375 1.17969,-1.21875 3.10938,-1.21875 0.75,0 1.46875,0.210937 0.72656,0.210938 1.32812,0.515625 v 1.632813 h -0.0781 q -0.67188,-0.523438 -1.39063,-0.804688 -0.71093,-0.28125 -1.39062,-0.28125 -1.25,0 -1.97656,0.84375 -0.71875,0.835938 -0.71875,2.460938 0,1.578125 0.70312,2.429687 0.71094,0.84375 1.99219,0.84375 0.44531,0 0.90625,-0.117187 0.46094,-0.117188 0.82812,-0.304688 0.32032,-0.164062 0.60157,-0.34375 0.28125,-0.1875 0.44531,-0.320312 h 0.0781 z"
         id="path2801" />
      <path
         d="m 232.45703,68.023066 h -1.9375 l -3.5,-3.820312 -0.95312,0.90625 v 2.914062 h -1.46875 v -12.15625 h 1.46875 v 7.796875 l 4.24218,-4.367187 h 1.85157 l -4.05469,4.03125 z"
         id="path2803" />
      <path
         d="m 247.35547,59.905879 q 0,0.773437 -0.27344,1.4375 -0.26562,0.65625 -0.75,1.140625 -0.60156,0.601562 -1.42187,0.90625 -0.82032,0.296875 -2.07032,0.296875 h -1.54687 v 4.335937 h -1.54688 V 56.390254 h 3.15625 q 1.04688,0 1.77344,0.179687 0.72656,0.171875 1.28906,0.546875 0.66407,0.445313 1.02344,1.109375 0.36719,0.664063 0.36719,1.679688 z m -1.60938,0.03906 q 0,-0.601562 -0.21093,-1.046875 -0.21094,-0.445312 -0.64063,-0.726562 -0.375,-0.242188 -0.85937,-0.34375 -0.47657,-0.109375 -1.21094,-0.109375 h -1.53125 v 4.648437 h 1.30469 q 0.9375,0 1.52343,-0.164062 0.58594,-0.171875 0.95313,-0.539063 0.36719,-0.375 0.51562,-0.789062 0.15625,-0.414063 0.15625,-0.929688 z"
         id="path2805" />
      <path
         d="m 256.32422,63.663691 q 0,2.132813 -1.09375,3.367188 -1.09375,1.234375 -2.92969,1.234375 -1.85156,0 -2.94531,-1.234375 -1.08594,-1.234375 -1.08594,-3.367188 0,-2.132812 1.08594,-3.367187 1.09375,-1.242188 2.94531,-1.242188 1.83594,0 2.92969,1.242188 1.09375,1.234375 1.09375,3.367187 z m -1.51563,0 q 0,-1.695312 -0.66406,-2.515625 -0.66406,-0.828125 -1.84375,-0.828125 -1.19531,0 -1.85937,0.828125 -0.65625,0.820313 -0.65625,2.515625 0,1.640625 0.66406,2.492188 0.66406,0.84375 1.85156,0.84375 1.17188,0 1.83594,-0.835938 0.67187,-0.84375 0.67187,-2.5 z"
         id="path2807" />
      <path
         d="m 264.83203,65.507441 q 0,1.195313 -0.99219,1.960938 -0.98437,0.765625 -2.69531,0.765625 -0.96875,0 -1.78125,-0.226563 -0.80469,-0.234375 -1.35156,-0.507812 v -1.648438 h 0.0781 q 0.69532,0.523438 1.54688,0.835938 0.85156,0.304687 1.63281,0.304687 0.96875,0 1.51563,-0.3125 0.54687,-0.3125 0.54687,-0.984375 0,-0.515625 -0.29687,-0.78125 -0.29688,-0.265625 -1.14063,-0.453125 -0.3125,-0.07031 -0.82031,-0.164062 -0.5,-0.09375 -0.91406,-0.203125 -1.14844,-0.304688 -1.63282,-0.890625 -0.47656,-0.59375 -0.47656,-1.453125 0,-0.539063 0.21875,-1.015625 0.22656,-0.476563 0.67969,-0.851563 0.4375,-0.367187 1.10937,-0.578125 0.67969,-0.21875 1.51563,-0.21875 0.78125,0 1.57812,0.195313 0.80469,0.1875 1.33594,0.460937 v 1.570313 h -0.0781 q -0.5625,-0.414063 -1.36719,-0.695313 -0.80469,-0.289062 -1.57813,-0.289062 -0.80468,0 -1.35937,0.3125 -0.55469,0.304687 -0.55469,0.914062 0,0.539063 0.33594,0.8125 0.32812,0.273438 1.0625,0.445313 0.40625,0.09375 0.90625,0.1875 0.50781,0.09375 0.84375,0.171875 1.02344,0.234375 1.57812,0.804687 0.55469,0.578125 0.55469,1.53125 z"
         id="path2809" />
    </g>
    <g
       aria-label="Blur Mix"
       transform="matrix(0.26458333,0,0,0.26458333,2.80655,49.539097)"
       id="text53364-38"
       style="font-size:16px;line-height:1.25;-inkscape-font-specification:'sans-serif, Normal';white-space:pre;shape-inside:url(#rect53366-0);display:inline">
      <path
         d="m 172.51953,64.444941 q 0,0.867188 -0.32812,1.53125 -0.32813,0.664063 -0.88282,1.09375 -0.65625,0.515625 -1.44531,0.734375 -0.78125,0.21875 -1.99219,0.21875 h -4.125 V 56.390254 h 3.44532 q 1.27343,0 1.90625,0.09375 0.63281,0.09375 1.21093,0.390625 0.64063,0.335937 0.92969,0.867187 0.28906,0.523438 0.28906,1.257813 0,0.828125 -0.42187,1.414062 -0.42188,0.578125 -1.125,0.929688 v 0.0625 q 1.17969,0.242187 1.85937,1.039062 0.67969,0.789063 0.67969,2 z m -2.60156,-5.242187 q 0,-0.421875 -0.14063,-0.710938 -0.14062,-0.289062 -0.45312,-0.46875 -0.36719,-0.210937 -0.89063,-0.257812 -0.52343,-0.05469 -1.29687,-0.05469 h -1.84375 v 3.359375 h 2 q 0.72656,0 1.15625,-0.07031 0.42969,-0.07813 0.79687,-0.3125 0.36719,-0.234375 0.51563,-0.601563 0.15625,-0.375 0.15625,-0.882812 z m 0.99219,5.304687 q 0,-0.703125 -0.21094,-1.117187 -0.21094,-0.414063 -0.76563,-0.703125 -0.375,-0.195313 -0.91406,-0.25 -0.53125,-0.0625 -1.29687,-0.0625 h -2.42969 v 4.328125 h 2.04687 q 1.01563,0 1.66407,-0.101563 0.64843,-0.109375 1.0625,-0.390625 0.4375,-0.304687 0.64062,-0.695312 0.20313,-0.390625 0.20313,-1.007813 z"
         id="path2931" />
      <path
         d="m 176.08203,68.023066 h -1.46875 v -12.15625 h 1.46875 z"
         id="path2933" />
      <path
         d="m 186.22266,68.023066 h -1.46875 v -0.96875 q -0.74219,0.585938 -1.42188,0.898438 -0.67969,0.3125 -1.5,0.3125 -1.375,0 -2.14062,-0.835938 -0.76563,-0.84375 -0.76563,-2.46875 v -5.664062 h 1.46875 v 4.96875 q 0,0.664062 0.0625,1.140625 0.0625,0.46875 0.26563,0.804687 0.21093,0.34375 0.54687,0.5 0.33594,0.15625 0.97656,0.15625 0.57032,0 1.24219,-0.296875 0.67969,-0.296875 1.26563,-0.757812 v -6.515625 h 1.46875 z"
         id="path2935" />
      <path
         d="m 194.55859,60.898066 h -0.0781 q -0.32813,-0.07813 -0.64063,-0.109375 -0.30468,-0.03906 -0.72656,-0.03906 -0.67969,0 -1.3125,0.304687 -0.63281,0.296875 -1.21875,0.773438 v 6.195312 h -1.46875 v -8.726562 h 1.46875 v 1.289062 q 0.875,-0.703125 1.53906,-0.992187 0.67188,-0.296875 1.36719,-0.296875 0.38281,0 0.55469,0.02344 0.17187,0.01563 0.51562,0.07031 z"
         id="path2937" />
      <path
         d="m 212.04297,68.023066 h -1.54688 V 57.999629 l -3.23437,6.820312 h -0.92188 l -3.21093,-6.820312 v 10.023437 h -1.44532 V 56.390254 h 2.10938 l 3.10156,6.476562 3,-6.476562 h 2.14844 z"
         id="path2939" />
      <path
         d="m 216.62891,57.835566 h -1.65625 v -1.523437 h 1.65625 z m -0.0937,10.1875 h -1.46875 v -8.726562 h 1.46875 z"
         id="path2941" />
      <path
         d="m 226.99609,68.023066 h -1.85156 l -2.47656,-3.351562 -2.49219,3.351562 h -1.71094 l 3.40625,-4.351562 -3.375,-4.375 h 1.85157 l 2.46093,3.296875 2.46875,-3.296875 h 1.71875 l -3.42968,4.296875 z"
         id="path2943" />
    </g>
    <g
       aria-label="Semitone"
       transform="matrix(0.26458333,0,0,0.26458333,-14.195345,68.461078)"
       id="text53364-9-7"
       style="font-size:16px;line-height:1.25;-inkscape-font-specification:'sans-serif, Normal';white-space:pre;shape-inside:url(#rect53366-69-3);display:inline">
      <path
         d="m 172.19922,64.702754 q 0,0.679687 -0.32031,1.34375 -0.3125,0.664062 -0.88282,1.125 -0.625,0.5 -1.46093,0.78125 -0.82813,0.28125 -2,0.28125 -1.25782,0 -2.26563,-0.234375 -1,-0.234375 -2.03906,-0.695313 v -1.9375 h 0.10937 q 0.88282,0.734375 2.03907,1.132813 1.15625,0.398437 2.17187,0.398437 1.4375,0 2.23438,-0.539062 0.80468,-0.539063 0.80468,-1.4375 0,-0.773438 -0.38281,-1.140625 -0.375,-0.367188 -1.14844,-0.570313 -0.58593,-0.15625 -1.27343,-0.257812 -0.67969,-0.101563 -1.44532,-0.257813 -1.54687,-0.328125 -2.29687,-1.117187 -0.74219,-0.796875 -0.74219,-2.070313 0,-1.460937 1.23438,-2.390625 1.23437,-0.9375 3.13281,-0.9375 1.22656,0 2.25,0.234375 1.02344,0.234375 1.8125,0.578125 v 1.828125 h -0.10938 q -0.66406,-0.5625 -1.75,-0.929687 -1.07812,-0.375 -2.21093,-0.375 -1.24219,0 -2,0.515625 -0.75,0.515625 -0.75,1.328125 0,0.726562 0.375,1.140625 0.375,0.414062 1.32031,0.632812 0.5,0.109375 1.42187,0.265625 0.92188,0.15625 1.5625,0.320313 1.29688,0.34375 1.95313,1.039062 0.65625,0.695313 0.65625,1.945313 z"
         id="path2993" />
      <path
         d="m 181.87109,63.812129 h -6.42968 q 0,0.804687 0.24218,1.40625 0.24219,0.59375 0.66407,0.976562 0.40625,0.375 0.96093,0.5625 0.5625,0.1875 1.23438,0.1875 0.89062,0 1.78906,-0.351562 0.90625,-0.359375 1.28906,-0.703125 h 0.0781 v 1.601562 q -0.74219,0.3125 -1.51563,0.523438 -0.77343,0.210937 -1.625,0.210937 -2.17187,0 -3.39062,-1.171875 -1.21875,-1.179687 -1.21875,-3.34375 0,-2.140625 1.16406,-3.398437 1.17188,-1.257813 3.07813,-1.257813 1.76562,0 2.71875,1.03125 0.96093,1.03125 0.96093,2.929688 z m -1.42968,-1.125 q -0.008,-1.15625 -0.58594,-1.789063 -0.57031,-0.632812 -1.74219,-0.632812 -1.17969,0 -1.88281,0.695312 -0.69531,0.695313 -0.78906,1.726563 z"
         id="path2995" />
      <path
         d="m 196.83203,68.023066 h -1.46875 v -4.96875 q 0,-0.5625 -0.0547,-1.085937 -0.0469,-0.523438 -0.21093,-0.835938 -0.17969,-0.335937 -0.51563,-0.507812 -0.33594,-0.171875 -0.96875,-0.171875 -0.61719,0 -1.23437,0.3125 -0.61719,0.304687 -1.23438,0.78125 0.0234,0.179687 0.0391,0.421875 0.0156,0.234375 0.0156,0.46875 v 5.585937 h -1.46875 v -4.96875 q 0,-0.578125 -0.0547,-1.09375 -0.0469,-0.523437 -0.21094,-0.835937 -0.17968,-0.335938 -0.51562,-0.5 -0.33594,-0.171875 -0.96875,-0.171875 -0.60156,0 -1.21094,0.296875 -0.60156,0.296875 -1.20312,0.757812 v 6.515625 h -1.46875 v -8.726562 h 1.46875 v 0.96875 q 0.6875,-0.570313 1.36718,-0.890625 0.6875,-0.320313 1.46094,-0.320313 0.89063,0 1.50781,0.375 0.625,0.375 0.92969,1.039063 0.89063,-0.75 1.625,-1.078125 0.73438,-0.335938 1.57031,-0.335938 1.4375,0 2.11719,0.875 0.6875,0.867188 0.6875,2.429688 z"
         id="path2997" />
      <path
         d="m 201.23828,57.835566 h -1.65625 v -1.523437 h 1.65625 z m -0.0937,10.1875 h -1.46875 v -8.726562 h 1.46875 z"
         id="path2999" />
      <path
         d="m 208.58203,67.944941 q -0.41406,0.109375 -0.90625,0.179688 -0.48437,0.07031 -0.86719,0.07031 -1.33593,0 -2.03125,-0.71875 -0.69531,-0.71875 -0.69531,-2.304687 v -4.640625 h -0.99219 v -1.234375 h 0.99219 v -2.507813 h 1.46875 v 2.507813 h 3.03125 v 1.234375 h -3.03125 v 3.976562 q 0,0.6875 0.0312,1.078125 0.0312,0.382813 0.21875,0.71875 0.17188,0.3125 0.46875,0.460938 0.30469,0.140625 0.92188,0.140625 0.35937,0 0.75,-0.101563 0.39062,-0.109375 0.5625,-0.179687 h 0.0781 z"
         id="path3001" />
      <path
         d="m 217.79297,63.663691 q 0,2.132813 -1.09375,3.367188 -1.09375,1.234375 -2.92969,1.234375 -1.85156,0 -2.94531,-1.234375 -1.08594,-1.234375 -1.08594,-3.367188 0,-2.132812 1.08594,-3.367187 1.09375,-1.242188 2.94531,-1.242188 1.83594,0 2.92969,1.242188 1.09375,1.234375 1.09375,3.367187 z m -1.51563,0 q 0,-1.695312 -0.66406,-2.515625 -0.66406,-0.828125 -1.84375,-0.828125 -1.19531,0 -1.85937,0.828125 -0.65625,0.820313 -0.65625,2.515625 0,1.640625 0.66406,2.492188 0.66406,0.84375 1.85156,0.84375 1.17188,0 1.83594,-0.835938 0.67187,-0.84375 0.67187,-2.5 z"
         id="path3003" />
      <path
         d="m 227.36328,68.023066 h -1.46875 v -4.96875 q 0,-0.601562 -0.0703,-1.125 -0.0703,-0.53125 -0.25781,-0.828125 -0.19532,-0.328125 -0.5625,-0.484375 -0.36719,-0.164062 -0.95313,-0.164062 -0.60156,0 -1.25781,0.296875 -0.65625,0.296875 -1.25781,0.757812 v 6.515625 h -1.46875 v -8.726562 h 1.46875 v 0.96875 q 0.6875,-0.570313 1.42187,-0.890625 0.73438,-0.320313 1.50781,-0.320313 1.41407,0 2.15625,0.851563 0.74219,0.851562 0.74219,2.453125 z"
         id="path3005" />
      <path
         d="m 237.49609,63.812129 h -6.42968 q 0,0.804687 0.24218,1.40625 0.24219,0.59375 0.66407,0.976562 0.40625,0.375 0.96093,0.5625 0.5625,0.1875 1.23438,0.1875 0.89062,0 1.78906,-0.351562 0.90625,-0.359375 1.28906,-0.703125 h 0.0781 v 1.601562 q -0.74219,0.3125 -1.51563,0.523438 -0.77343,0.210937 -1.625,0.210937 -2.17187,0 -3.39062,-1.171875 -1.21875,-1.179687 -1.21875,-3.34375 0,-2.140625 1.16406,-3.398437 1.17188,-1.257813 3.07813,-1.257813 1.76562,0 2.71875,1.03125 0.96093,1.03125 0.96093,2.929688 z m -1.42968,-1.125 q -0.008,-1.15625 -0.58594,-1.789063 -0.57031,-0.632812 -1.74219,-0.632812 -1.17969,0 -1.88281,0.695312 -0.69531,0.695313 -0.78906,1.726563 z"
         id="path3007" />
    </g>
    <g
       aria-label="Freq Center"
       transform="matrix(0.26458333,0,0,0.26458333,2.80655,37.706301)"
       id="text53364-4"
       style="font-size:16px;line-height:1.25;-inkscape-font-specification:'sans-serif, Normal';white-space:pre;shape-inside:url(#rect53366-5);display:inline">
      <path
         d="m 171.17578,57.765254 h -5.88281 v 3.28125 h 5.05469 v 1.375 h -5.05469 v 5.601562 h -1.54688 V 56.390254 h 7.42969 z"
         id="path2892" />
      <path
         d="m 178.26953,60.898066 h -0.0781 q -0.32813,-0.07813 -0.64063,-0.109375 -0.30469,-0.03906 -0.72656,-0.03906 -0.67969,0 -1.3125,0.304687 -0.63281,0.296875 -1.21875,0.773438 v 6.195312 h -1.46875 v -8.726562 h 1.46875 v 1.289062 q 0.875,-0.703125 1.53906,-0.992187 0.67188,-0.296875 1.36719,-0.296875 0.38281,0 0.55469,0.02344 0.17187,0.01563 0.51562,0.07031 z"
         id="path2894" />
      <path
         d="m 186.95703,63.812129 h -6.42969 q 0,0.804687 0.24219,1.40625 0.24219,0.59375 0.66406,0.976562 0.40625,0.375 0.96094,0.5625 0.5625,0.1875 1.23438,0.1875 0.89062,0 1.78906,-0.351562 0.90625,-0.359375 1.28906,-0.703125 h 0.0781 v 1.601562 q -0.74219,0.3125 -1.51563,0.523438 -0.77344,0.210937 -1.625,0.210937 -2.17187,0 -3.39062,-1.171875 -1.21875,-1.179687 -1.21875,-3.34375 0,-2.140625 1.16406,-3.398437 1.17187,-1.257813 3.07812,-1.257813 1.76563,0 2.71875,1.03125 0.96094,1.03125 0.96094,2.929688 z m -1.42969,-1.125 q -0.008,-1.15625 -0.58593,-1.789063 -0.57032,-0.632812 -1.74219,-0.632812 -1.17969,0 -1.88281,0.695312 -0.69532,0.695313 -0.78907,1.726563 z"
         id="path2896" />
      <path
         d="m 196.26172,71.241816 h -1.46875 v -4.203125 q -0.67969,0.585938 -1.35156,0.875 -0.67188,0.28125 -1.45313,0.28125 -1.55469,0 -2.48437,-1.195312 -0.92188,-1.203125 -0.92188,-3.3125 0,-1.125 0.32031,-1.984375 0.32813,-0.867188 0.85938,-1.453125 0.51562,-0.570313 1.21094,-0.882813 0.69531,-0.3125 1.46875,-0.3125 0.70312,0 1.24218,0.15625 0.54688,0.15625 1.10938,0.460938 l 0.0937,-0.375 h 1.375 z m -1.46875,-5.4375 v -4.9375 q -0.60938,-0.273437 -1.07813,-0.382812 -0.46875,-0.109375 -1.01562,-0.109375 -1.27344,0 -1.9375,0.867187 -0.66406,0.859375 -0.66406,2.375 0,1.53125 0.53125,2.359375 0.53906,0.820313 1.6875,0.820313 0.64062,0 1.28125,-0.273438 0.64062,-0.28125 1.19531,-0.71875 z"
         id="path2898" />
      <path
         d="m 213.87891,67.179316 q -0.42969,0.1875 -0.78125,0.351563 -0.34375,0.164062 -0.90625,0.34375 -0.47657,0.148437 -1.03907,0.25 -0.55468,0.109375 -1.22656,0.109375 -1.26562,0 -2.30469,-0.351563 -1.03125,-0.359375 -1.79687,-1.117187 -0.75,-0.742188 -1.17188,-1.882813 -0.42187,-1.148437 -0.42187,-2.664062 0,-1.4375 0.40625,-2.570313 0.40625,-1.132812 1.17187,-1.914062 0.74219,-0.757813 1.78907,-1.15625 1.05468,-0.398438 2.33593,-0.398438 0.9375,0 1.86719,0.226563 0.9375,0.226562 2.07813,0.796875 v 1.835937 h -0.11719 q -0.96094,-0.804687 -1.90625,-1.171875 -0.94531,-0.367187 -2.02344,-0.367187 -0.88281,0 -1.59375,0.289062 -0.70312,0.28125 -1.25781,0.882813 -0.53906,0.585937 -0.84375,1.484375 -0.29688,0.890625 -0.29688,2.0625 0,1.226562 0.32813,2.109375 0.33594,0.882812 0.85937,1.4375 0.54688,0.578125 1.27344,0.859375 0.73438,0.273437 1.54688,0.273437 1.11718,0 2.09375,-0.382812 0.97656,-0.382813 1.82812,-1.148438 h 0.10938 z"
         id="path2900" />
      <path
         d="m 223.25391,63.812129 h -6.42969 q 0,0.804687 0.24219,1.40625 0.24218,0.59375 0.66406,0.976562 0.40625,0.375 0.96094,0.5625 0.5625,0.1875 1.23437,0.1875 0.89063,0 1.78906,-0.351562 0.90625,-0.359375 1.28907,-0.703125 h 0.0781 v 1.601562 q -0.74219,0.3125 -1.51562,0.523438 -0.77344,0.210937 -1.625,0.210937 -2.17188,0 -3.39063,-1.171875 -1.21875,-1.179687 -1.21875,-3.34375 0,-2.140625 1.16406,-3.398437 1.17188,-1.257813 3.07813,-1.257813 1.76562,0 2.71875,1.03125 0.96094,1.03125 0.96094,2.929688 z m -1.42969,-1.125 q -0.008,-1.15625 -0.58594,-1.789063 -0.57031,-0.632812 -1.74219,-0.632812 -1.17968,0 -1.88281,0.695312 -0.69531,0.695313 -0.78906,1.726563 z"
         id="path2902" />
      <path
         d="m 232.77734,68.023066 h -1.46875 v -4.96875 q 0,-0.601562 -0.0703,-1.125 -0.0703,-0.53125 -0.25781,-0.828125 -0.19531,-0.328125 -0.5625,-0.484375 -0.36719,-0.164062 -0.95313,-0.164062 -0.60156,0 -1.25781,0.296875 -0.65625,0.296875 -1.25781,0.757812 v 6.515625 h -1.46875 v -8.726562 h 1.46875 v 0.96875 q 0.6875,-0.570313 1.42187,-0.890625 0.73438,-0.320313 1.50782,-0.320313 1.41406,0 2.15625,0.851563 0.74218,0.851562 0.74218,2.453125 z"
         id="path2904" />
      <path
         d="m 240.13672,67.944941 q -0.41406,0.109375 -0.90625,0.179688 -0.48438,0.07031 -0.86719,0.07031 -1.33594,0 -2.03125,-0.71875 -0.69531,-0.71875 -0.69531,-2.304687 v -4.640625 h -0.99219 v -1.234375 h 0.99219 v -2.507813 h 1.46875 v 2.507813 h 3.03125 v 1.234375 h -3.03125 v 3.976562 q 0,0.6875 0.0312,1.078125 0.0312,0.382813 0.21875,0.71875 0.17187,0.3125 0.46875,0.460938 0.30469,0.140625 0.92187,0.140625 0.35938,0 0.75,-0.101563 0.39063,-0.109375 0.5625,-0.179687 h 0.0781 z"
         id="path2906" />
      <path
         d="m 249.21484,63.812129 h -6.42968 q 0,0.804687 0.24218,1.40625 0.24219,0.59375 0.66407,0.976562 0.40625,0.375 0.96093,0.5625 0.5625,0.1875 1.23438,0.1875 0.89062,0 1.78906,-0.351562 0.90625,-0.359375 1.28906,-0.703125 h 0.0781 v 1.601562 q -0.74219,0.3125 -1.51563,0.523438 -0.77343,0.210937 -1.625,0.210937 -2.17187,0 -3.39062,-1.171875 -1.21875,-1.179687 -1.21875,-3.34375 0,-2.140625 1.16406,-3.398437 1.17188,-1.257813 3.07813,-1.257813 1.76562,0 2.71875,1.03125 0.96093,1.03125 0.96093,2.929688 z m -1.42968,-1.125 q -0.008,-1.15625 -0.58594,-1.789063 -0.57031,-0.632812 -1.74219,-0.632812 -1.17969,0 -1.88281,0.695312 -0.69531,0.695313 -0.78906,1.726563 z"
         id="path2908" />
      <path
         d="m 256.88672,60.898066 h -0.0781 q -0.32812,-0.07813 -0.64062,-0.109375 -0.30469,-0.03906 -0.72656,-0.03906 -0.67969,0 -1.3125,0.304687 -0.63282,0.296875 -1.21875,0.773438 v 6.195312 h -1.46875 v -8.726562 h 1.46875 v 1.289062 q 0.875,-0.703125 1.53906,-0.992187 0.67187,-0.296875 1.36719,-0.296875 0.38281,0 0.55468,0.02344 0.17188,0.01563 0.51563,0.07031 z"
         id="path2910" />
    </g>
  </g>
  <g
     inkscape:groupmode="layer"
     id="layer2"
     inkscape:label="components"
     style="display:none">
    <circle
       style="opacity:1;fill:#ff0000;fill-rule:evenodd;stroke-width:0.418087"
       id="path75"
       cx="23.624825"
       cy="44.718803"
       inkscape:label="Blur_Freq_Width_Attenuverter"
       r="3.5" />
    <circle
       style="opacity:1;fill:#ff0000;fill-rule:evenodd;stroke-width:0.410173"
       id="path77"
       cx="17.803986"
       cy="105.79929"
       inkscape:label="Gain_Attenuverter"
       r="3.5" />
    <circle
       style="opacity:1;fill:#ff0000;fill-rule:evenodd;stroke-width:0.375851"
       id="path83"
       cx="32.84087"
       cy="105.79929"
       inkscape:label="Gain_Knob"
       r="4.5" />
    <circle
       style="opacity:1;fill:#00ff00;fill-rule:evenodd;stroke-width:0.247343"
       id="path89"
       cx="5.811996"
       cy="117.47443"
       inkscape:label="Audio_In"
       r="3.5" />
    <circle
       style="opacity:1;fill:#0000ff;fill-rule:evenodd;stroke-width:0.171951"
       id="path91"
       cx="67.464417"
       cy="117.47443"
       inkscape:label="Audio_Out"
       r="3.5" />
    <circle
       style="display:inline;fill:#ff0000;fill-rule:evenodd;stroke-width:0.250567"
       id="path83-7"
       cx="69.314125"
       cy="86.581177"
       inkscape:label="Robot_Button"
       r="3" />
    <circle
       style="display:inline;fill:#ff00ff;stroke-width:0.129024"
       id="path231-1"
       cx="69.314125"
       cy="86.581177"
       inkscape:label="Robot_LED"
       r="1" />
    <circle
       style="opacity:1;fill:#ff0000;stroke-width:0.336921"
       id="path394"
       cx="38.661709"
       cy="44.718803"
       inkscape:label="Blur_Freq_Width_Knob"
       r="4.5" />
    <circle
       style="fill:#ff0000;fill-rule:evenodd;stroke-width:0.358028"
       id="path71"
       cx="17.803986"
       cy="13.83558"
       inkscape:label="Length_Attenuverter"
       r="3.5" />
    <circle
       style="fill:#ff0000;stroke-width:0.355549"
       id="path362"
       cx="32.84087"
       cy="13.83558"
       inkscape:label="Length_Knob"
       r="4.5" />
    <circle
       style="fill:#00ff00;stroke-width:0.438494"
       id="path422"
       cx="6.3557782"
       cy="13.83558"
       inkscape:label="Length_CV"
       r="3.5" />
    <circle
       style="fill:#ff0000;fill-rule:evenodd;stroke-width:0.38259"
       id="path79"
       cx="32.84087"
       cy="24.565212"
       inkscape:label="Position_Knob"
       r="4.5" />
    <circle
       style="fill:#ff0000;stroke-width:0.276538"
       id="path386"
       cx="17.803986"
       cy="24.565212"
       inkscape:label="Position_Attenuverter"
       r="3.5" />
    <circle
       style="fill:#00ff00;stroke-width:0.318116"
       id="path424"
       cx="6.3557782"
       cy="24.565212"
       inkscape:label="Position_CV"
       r="3.5" />
    <circle
       style="fill:#ff0000;fill-rule:evenodd;stroke-width:0.40391"
       id="path73"
       cx="17.803986"
       cy="77.017609"
       inkscape:label="Pitch_Attenuverter"
       r="3.5" />
    <circle
       style="fill:#ff0000;stroke-width:0.359138"
       id="path392"
       cx="32.84087"
       cy="77.017609"
       inkscape:label="Pitch_Knob"
       r="4.5" />
    <circle
       style="fill:#00ff00;stroke-width:0.384585"
       id="path426"
       cx="6.3557782"
       cy="77.017609"
       inkscape:label="Pitch_CV"
       r="3.5" />
    <circle
       style="display:inline;fill:#ff0000;fill-rule:evenodd;stroke-width:0.40391"
       id="path73-1"
       cx="23.624825"
       cy="34.471474"
       inkscape:label="Blur_Spread_Attenuverter"
       r="3.5" />
    <circle
       style="display:inline;fill:#ff0000;stroke-width:0.359138"
       id="path392-6"
       cx="38.661709"
       cy="34.471474"
       inkscape:label="Blur_Spread_Knob"
       r="4.5" />
    <circle
       style="display:inline;fill:#00ff00;stroke-width:0.384585"
       id="path426-6"
       cx="12.176608"
       cy="34.471474"
       inkscape:label="Blur_Spread_CV"
       r="3.5" />
    <circle
       style="opacity:1;fill:#00ff00;stroke-width:0.444895"
       id="path428"
       cx="6.3557782"
       cy="105.79929"
       inkscape:label="Gain_CV"
       r="3.5" />
    <circle
       style="display:inline;fill:#00ff00;stroke-width:0.444895"
       id="path428-4"
       cx="69.314125"
       cy="73.960342"
       inkscape:label="Robot_CV"
       r="3.5" />
    <circle
       style="display:inline;fill:#ff0000;fill-rule:evenodd;stroke-width:0.250567"
       id="path83-7-1"
       cx="23.904879"
       cy="84.924057"
       inkscape:label="Semitone_Button"
       r="3" />
    <circle
       style="display:inline;fill:#ff00ff;stroke-width:0.129024"
       id="path231-1-9"
       cx="23.904879"
       cy="84.924057"
       inkscape:label="Semitone_LED"
       r="1" />
    <circle
       style="display:inline;fill:#00ff00;stroke-width:0.444895"
       id="path428-4-7"
       cx="11.784036"
       cy="84.924057"
       inkscape:label="Semitone_CV"
       r="3.5" />
    <circle
       style="opacity:1;fill:#00ff00;stroke-width:0.321766"
       id="path430"
       cx="12.176608"
       cy="44.718803"
       inkscape:label="Blur_Freq_Width_CV"
       r="3.5" />
    <circle
       style="fill:#ff0000;stroke-width:0.296597"
       id="path390"
       cx="23.624825"
       cy="55.140888"
       inkscape:label="Blur_Freq_Center_Attenuverter"
       r="3.5" />
    <circle
       style="fill:#ff0000;stroke-width:0.349641"
       id="path396"
       cx="38.661709"
       cy="55.140888"
       inkscape:label="Blur_Freq_Center_Knob"
       r="4.5" />
    <circle
       style="fill:#00ff00;stroke-width:0.3764"
       id="path432"
       cx="12.176608"
       cy="55.140888"
       inkscape:label="Blur_Freq_Center_CV"
       r="3.5" />
    <circle
       style="fill:#ff0000;fill-rule:evenodd;stroke-width:0.409006"
       id="path81"
       cx="38.661709"
       cy="65.902634"
       inkscape:label="Blur_Mix_Knob"
       r="4.5" />
    <circle
       style="fill:#ff0000;stroke-width:0.341366"
       id="path388"
       cx="23.624825"
       cy="65.902634"
       inkscape:label="Blur_Mix_Attenuverter"
       r="3.5" />
    <circle
       style="fill:#00ff00;stroke-width:0.292328"
       id="path434"
       cx="12.176608"
       cy="65.902634"
       inkscape:label="Blur_Mix_CV"
       r="3.5" />
    <circle
       style="fill:#ff0000;fill-rule:evenodd;stroke-width:0.306792"
       id="path87"
       cx="17.803986"
       cy="95.136612"
       inkscape:label="Freeze_Attenuverter"
       r="3.5" />
    <circle
       style="display:inline;fill:#ff0000;fill-rule:evenodd;stroke-width:0.394446"
       id="path87-0"
       cx="32.84087"
       cy="95.136612"
       inkscape:label="Freeze_Knob"
       r="4.5" />
    <circle
       style="fill:#00ff00;stroke-width:0.315752"
       id="path438"
       cx="6.3557782"
       cy="95.136612"
       inkscape:label="Freeze_CV"
       r="3.5" />
  </g>
</svg>
