<?xml version="1.0" encoding="UTF-8" standalone="no"?>
<!-- Created with Inkscape (http://www.inkscape.org/) -->

<svg
   width="30.48mm"
   height="128.5mm"
   viewBox="0 0 30.479999 128.5"
   version="1.1"
   id="svg5"
   inkscape:version="1.1 (c68e22c387, 2021-05-23)"
   sodipodi:docname="Morse.svg"
   xmlns:inkscape="http://www.inkscape.org/namespaces/inkscape"
   xmlns:sodipodi="http://sodipodi.sourceforge.net/DTD/sodipodi-0.dtd"
   xmlns="http://www.w3.org/2000/svg"
   xmlns:svg="http://www.w3.org/2000/svg">
  <sodipodi:namedview
     id="namedview7"
     pagecolor="#ffffff"
     bordercolor="#666666"
     borderopacity="1.0"
     inkscape:pageshadow="2"
     inkscape:pageopacity="0.0"
     inkscape:pagecheckerboard="0"
     inkscape:document-units="mm"
     showgrid="false"
     inkscape:zoom="1.0482005"
     inkscape:cx="-33.867566"
     inkscape:cy="307.67015"
     inkscape:window-width="1920"
     inkscape:window-height="1017"
     inkscape:window-x="-8"
     inkscape:window-y="-8"
     inkscape:window-maximized="1"
     inkscape:current-layer="layer4"
     height="128.5mm"
     width="25.4mm"
     showguides="false" />
  <defs
     id="defs2">
    <rect
       x="-327.22748"
       y="331.99756"
       width="141.19437"
       height="39.114655"
       id="rect11064" />
    <rect
       x="-320.54935"
       y="275.7106"
       width="105.89577"
       height="28.62048"
       id="rect8418" />
    <rect
       x="-318.64133"
       y="213.69957"
       width="152.64255"
       height="47.700798"
       id="rect6212" />
    <rect
       x="-165.99878"
       y="83.953407"
       width="127.83814"
       height="43.884735"
       id="rect3698" />
    <rect
       x="162.18271"
       y="53.424892"
       width="115.43593"
       height="65.827103"
       id="rect53366" />
    <marker
       style="overflow:visible"
       id="Arrow1Lstart"
       refX="0"
       refY="0"
       orient="auto"
       inkscape:stockid="Arrow1Lstart"
       inkscape:isstock="true">
      <path
         transform="matrix(0.8,0,0,0.8,10,0)"
         style="fill:context-stroke;fill-rule:evenodd;stroke:context-stroke;stroke-width:1pt"
         d="M 0,0 5,-5 -12.5,0 5,5 Z"
         id="path10030" />
    </marker>
    <rect
       x="10.494176"
       y="-108.75782"
       width="272.84857"
       height="51.516861"
       id="rect17595" />
    <rect
       x="53.967293"
       y="951.17352"
       width="311.6611"
       height="76.903389"
       id="rect44562" />
    <rect
       x="473.56299"
       y="925.53906"
       width="230.71017"
       height="62.062386"
       id="rect41400" />
    <rect
       x="493.80072"
       y="783.87494"
       width="191.58389"
       height="55.316475"
       id="rect36810" />
    <rect
       x="470.86462"
       y="671.89276"
       width="58.014835"
       height="24.285278"
       id="rect33240" />
    <rect
       x="431.73834"
       y="607.13202"
       width="182.1396"
       height="49.919746"
       id="rect30990" />
    <rect
       x="426.34161"
       y="489.75317"
       width="237.45609"
       height="71.50666"
       id="rect28630" />
    <rect
       x="442.5318"
       y="329.20047"
       width="230.71017"
       height="110.63295"
       id="rect27194" />
    <rect
       x="433.08752"
       y="192.93307"
       width="250.94791"
       height="83.6493"
       id="rect25340" />
    <rect
       x="268.48727"
       y="995.69653"
       width="171.34615"
       height="44.523018"
       id="rect20604" />
    <rect
       x="273.884"
       y="918.79315"
       width="207.77408"
       height="40.475468"
       id="rect17430" />
    <rect
       x="308.96274"
       y="854.03241"
       width="168.6478"
       height="47.221382"
       id="rect15356" />
    <rect
       x="339.99393"
       y="709.66992"
       width="248.24956"
       height="103.88704"
       id="rect12160" />
    <rect
       x="349.43823"
       y="648.95667"
       width="52.618111"
       height="25.634464"
       id="rect2028" />
    <rect
       x="433.08752"
       y="192.93307"
       width="83.99511"
       height="27.362356"
       id="rect25340-8" />
    <rect
       x="493.80072"
       y="783.87494"
       width="191.58389"
       height="55.316475"
       id="rect36810-5" />
    <rect
       x="493.80072"
       y="783.87494"
       width="191.58389"
       height="55.316475"
       id="rect36810-8" />
    <rect
       x="349.43823"
       y="648.95667"
       width="52.618111"
       height="25.634464"
       id="rect2028-5" />
    <rect
       x="473.56299"
       y="925.53906"
       width="230.71017"
       height="62.062386"
       id="rect41400-2" />
    <rect
       x="162.18271"
       y="53.424892"
       width="115.43593"
       height="65.827103"
       id="rect53366-3" />
    <rect
       x="162.18271"
       y="53.424892"
       width="115.43593"
       height="65.827103"
       id="rect53366-4" />
    <rect
       x="162.18271"
       y="53.424892"
       width="115.43593"
       height="65.827103"
       id="rect53366-43" />
    <rect
       x="162.18271"
       y="53.424892"
       width="115.43593"
       height="65.827103"
       id="rect53366-2" />
    <rect
       x="162.18271"
       y="53.424892"
       width="115.43593"
       height="65.827103"
       id="rect53366-5" />
    <rect
       x="162.18271"
       y="53.424892"
       width="115.43593"
       height="65.827103"
       id="rect53366-6" />
    <rect
       x="162.18271"
       y="53.424892"
       width="115.43593"
       height="65.827103"
       id="rect53366-0" />
    <rect
       x="162.18271"
       y="53.424892"
       width="115.43593"
       height="65.827103"
       id="rect53366-06" />
    <rect
       x="162.18271"
       y="53.424892"
       width="115.43593"
       height="65.827103"
       id="rect53366-69" />
    <rect
       x="162.18271"
       y="53.424892"
       width="115.43593"
       height="65.827103"
       id="rect53366-7" />
    <rect
       x="162.18271"
       y="53.424892"
       width="115.43593"
       height="65.827103"
       id="rect53366-43-6" />
    <rect
       x="162.18271"
       y="53.424892"
       width="115.43593"
       height="65.827103"
       id="rect53366-43-3" />
    <rect
       x="162.18271"
       y="53.424892"
       width="115.43593"
       height="65.827103"
       id="rect53366-31" />
    <rect
       x="162.18271"
       y="53.424892"
       width="115.43593"
       height="65.827103"
       id="rect53366-69-3" />
    <rect
       x="-327.22748"
       y="331.99756"
       width="141.19437"
       height="39.114655"
       id="rect11064-8" />
    <rect
       x="-327.22748"
       y="331.99756"
       width="141.19437"
       height="39.114655"
       id="rect11064-8-5" />
  </defs>
  <g
     inkscape:label="Layer 1"
     inkscape:groupmode="layer"
     id="layer1"
     style="display:inline;opacity:1">
    <path
       style="fill:#e6e6e6;fill-opacity:1;stroke:none;stroke-width:0.279758"
       d="M 30.830132,64.249991 V 0 H 15.415049 0 v 64.249991 64.249869 h 15.415049 15.415083 z"
       id="path356" />
    <text
       xml:space="preserve"
       transform="scale(0.26458333)"
       id="text17428"
       style="font-style:normal;font-weight:normal;font-size:40px;line-height:1.25;font-family:sans-serif;white-space:pre;shape-inside:url(#rect17430);fill:#000000;fill-opacity:1;stroke:none"><tspan
         x="273.88477"
         y="995.76274"
         id="tspan1505"><tspan
           dx="0 24.121094 31.484375"
           id="tspan1503">POS</tspan></tspan></text>
    <text
       xml:space="preserve"
       transform="scale(0.26458333)"
       id="text20602"
       style="font-style:normal;font-weight:normal;font-size:40px;line-height:1.25;font-family:sans-serif;white-space:pre;shape-inside:url(#rect20604);fill:#000000;fill-opacity:1;stroke:none" />
    <rect
       style="display:inline;opacity:1;fill:#1a1a1a;stroke-width:0.288141"
       id="rect528"
       width="14.278846"
       height="17.78153"
       x="8.0260658"
       y="100.06842"
       ry="2.3755326"
       rx="2.0193338" />
  </g>
  <g
     inkscape:groupmode="layer"
     id="layer4"
     inkscape:label="Labels"
     style="display:inline">
    <g
       aria-label="Tonecarver"
       transform="matrix(0.26458333,0,0,0.26458333,-41.188421,106.3767)"
       id="text53364-2"
       style="font-size:18.6667px;line-height:1.25;-inkscape-font-specification:'sans-serif, Normal';white-space:pre;shape-inside:url(#rect53366-31)">
      <path
         d="m 173.68622,58.488508 h -4.84897 v 11.96747 h -1.80469 v -11.96747 h -4.84897 v -1.604169 h 11.50263 z"
         id="path3144" />
      <path
         d="m 182.04431,65.370031 q 0,2.488286 -1.27605,3.928393 -1.27604,1.440106 -3.41797,1.440106 -2.16016,0 -3.43621,-1.440106 -1.26693,-1.440107 -1.26693,-3.928393 0,-2.488286 1.26693,-3.928392 1.27605,-1.449222 3.43621,-1.449222 2.14193,0 3.41797,1.449222 1.27605,1.440106 1.27605,3.928392 z m -1.76824,0 q 0,-1.977868 -0.77474,-2.934901 -0.77474,-0.966147 -2.15104,-0.966147 -1.39454,0 -2.16928,0.966147 -0.76562,0.957033 -0.76562,2.934901 0,1.914066 0.77474,2.907558 0.77474,0.984376 2.16016,0.984376 1.36719,0 2.14193,-0.975262 0.78385,-0.984377 0.78385,-2.916672 z"
         id="path3146" />
      <path
         d="m 193.20969,70.455978 h -1.71354 v -5.796886 q 0,-0.701824 -0.082,-1.312502 -0.082,-0.619793 -0.30079,-0.966148 -0.22786,-0.382813 -0.65625,-0.565105 -0.42838,-0.191406 -1.11198,-0.191406 -0.70182,0 -1.46745,0.346355 -0.76563,0.346354 -1.46745,0.884116 v 7.601576 h -1.71354 V 60.27497 h 1.71354 v 1.13021 q 0.80208,-0.665365 1.65886,-1.039064 0.85677,-0.373699 1.75911,-0.373699 1.64975,0 2.51563,0.993492 0.86589,0.993491 0.86589,2.861984 z"
         id="path3148" />
      <path
         d="m 205.03133,65.543209 h -7.50132 q 0,0.938803 0.28255,1.640628 0.28256,0.692709 0.77474,1.139325 0.47396,0.4375 1.1211,0.656251 0.65625,0.21875 1.44011,0.21875 1.03906,0 2.08724,-0.410157 1.05729,-0.419271 1.50391,-0.820314 h 0.0912 v 1.868493 q -0.86589,0.364584 -1.76824,0.610678 -0.90234,0.246094 -1.89583,0.246094 -2.53386,0 -3.95574,-1.367189 -1.42188,-1.376305 -1.42188,-3.901049 0,-2.497401 1.35808,-3.964851 1.36719,-1.467451 3.59115,-1.467451 2.0599,0 3.17188,1.203128 1.1211,1.203127 1.1211,3.417974 z m -1.66797,-1.312503 q -0.009,-1.348961 -0.6836,-2.087243 -0.66537,-0.738283 -2.03256,-0.738283 -1.3763,0 -2.19661,0.8112 -0.8112,0.811199 -0.92058,2.014326 z"
         id="path3150" />
      <path
         d="m 215.15765,69.817956 q -0.85677,0.410157 -1.63152,0.638022 -0.76562,0.227865 -1.63151,0.227865 -1.10287,0 -2.02344,-0.319011 -0.92057,-0.328126 -1.57683,-0.984377 -0.66536,-0.656251 -1.02995,-1.658857 -0.36458,-1.002606 -0.36458,-2.342452 0,-2.497401 1.36719,-3.919278 1.3763,-1.421878 3.62761,-1.421878 0.875,0 1.71355,0.246095 0.84765,0.246094 1.54948,0.601563 v 1.904951 h -0.0911 q -0.78385,-0.610678 -1.6224,-0.938803 -0.82943,-0.328126 -1.6224,-0.328126 -1.45833,0 -2.30599,0.984377 -0.83854,0.975262 -0.83854,2.871099 0,1.841149 0.82031,2.83464 0.82943,0.984377 2.32422,0.984377 0.51954,0 1.0573,-0.136719 0.53776,-0.136719 0.96615,-0.355469 0.37369,-0.191407 0.70182,-0.401043 0.32812,-0.21875 0.51953,-0.373698 h 0.0911 z"
         id="path3152" />
      <path
         d="m 225.26574,70.455978 h -1.70443 v -1.084637 q -0.22787,0.154948 -0.6198,0.4375 -0.38281,0.273438 -0.74739,0.437501 -0.42839,0.209636 -0.98438,0.346355 -0.55599,0.145833 -1.30339,0.145833 -1.3763,0 -2.33333,-0.911459 -0.95704,-0.91146 -0.95704,-2.324223 0,-1.157555 0.49219,-1.868493 0.5013,-0.720054 1.42188,-1.130211 0.92969,-0.410157 2.23308,-0.55599 1.30338,-0.145834 2.79818,-0.218751 V 63.46508 q 0,-0.583335 -0.20964,-0.966148 -0.20052,-0.382813 -0.58333,-0.601563 -0.36459,-0.209636 -0.875,-0.282553 -0.51042,-0.07292 -1.06641,-0.07292 -0.67448,0 -1.50391,0.182292 -0.82943,0.173178 -1.71355,0.510418 h -0.0911 V 60.49372 q 0.5013,-0.136719 1.44922,-0.300781 0.94792,-0.164063 1.86849,-0.164063 1.07552,0 1.8685,0.182292 0.80208,0.173177 1.38541,0.601563 0.57422,0.419272 0.87501,1.084638 0.30078,0.665365 0.30078,1.649742 z m -1.70443,-2.506515 v -2.834641 q -0.78386,0.04557 -1.85027,0.136719 -1.05729,0.09115 -1.67708,0.264324 -0.73829,0.209636 -1.19402,0.656251 -0.45573,0.437501 -0.45573,1.212242 0,0.875001 0.52865,1.321617 0.52865,0.437501 1.61329,0.437501 0.90234,0 1.64974,-0.346355 0.7474,-0.35547 1.38542,-0.847658 z"
         id="path3154" />
      <path
         d="m 234.9181,62.143463 h -0.0911 q -0.38281,-0.09115 -0.7474,-0.127604 -0.35546,-0.04557 -0.84765,-0.04557 -0.79297,0 -1.53126,0.355469 -0.73828,0.346355 -1.42187,0.902345 v 7.227878 h -1.71355 V 60.27497 h 1.71355 v 1.503909 q 1.02083,-0.820314 1.79557,-1.157554 0.78386,-0.346355 1.59506,-0.346355 0.44661,0 0.64713,0.02734 0.20053,0.01823 0.60157,0.08203 z"
         id="path3156" />
      <path
         d="m 245.33609,60.27497 -4.1198,10.181008 h -1.72266 L 235.40117,60.27497 h 1.85938 l 3.15365,8.102879 3.12631,-8.102879 z"
         id="path3158" />
      <path
         d="m 255.93636,65.543209 h -7.50131 q 0,0.938803 0.28255,1.640628 0.28255,0.692709 0.77474,1.139325 0.47396,0.4375 1.1211,0.656251 0.65625,0.21875 1.4401,0.21875 1.03907,0 2.08725,-0.410157 1.05729,-0.419271 1.50391,-0.820314 h 0.0911 v 1.868493 q -0.86588,0.364584 -1.76823,0.610678 -0.90235,0.246094 -1.89584,0.246094 -2.53386,0 -3.95573,-1.367189 -1.42188,-1.376305 -1.42188,-3.901049 0,-2.497401 1.35808,-3.964851 1.36718,-1.467451 3.59115,-1.467451 2.0599,0 3.17188,1.203128 1.12109,1.203127 1.12109,3.417974 z m -1.66797,-1.312503 q -0.009,-1.348961 -0.68359,-2.087243 -0.66537,-0.738283 -2.03256,-0.738283 -1.3763,0 -2.19662,0.8112 -0.8112,0.811199 -0.92057,2.014326 z"
         id="path3160" />
      <path
         d="m 264.8869,62.143463 h -0.0911 q -0.38282,-0.09115 -0.7474,-0.127604 -0.35547,-0.04557 -0.84766,-0.04557 -0.79297,0 -1.53125,0.355469 -0.73829,0.346355 -1.42188,0.902345 v 7.227878 h -1.71354 V 60.27497 h 1.71354 v 1.503909 q 1.02083,-0.820314 1.79558,-1.157554 0.78385,-0.346355 1.59505,-0.346355 0.44662,0 0.64714,0.02734 0.20052,0.01823 0.60156,0.08203 z"
         id="path3162" />
    </g>
    <g
       aria-label="Out"
       transform="matrix(0.26458333,0,0,0.26458333,-31.660595,87.99061)"
       id="text53364-3-4"
       style="font-size:16px;line-height:1.25;-inkscape-font-specification:'sans-serif, Normal';white-space:pre;shape-inside:url(#rect53366-43-3);stroke:#ffffff">
      <path
         d="m 172.41797,57.726191 q 0.71094,0.78125 1.08594,1.914063 0.38281,1.132812 0.38281,2.570312 0,1.4375 -0.39063,2.578125 -0.38281,1.132813 -1.07812,1.890625 -0.71875,0.789063 -1.70313,1.1875 -0.97656,0.398438 -2.23437,0.398438 -1.22656,0 -2.23438,-0.40625 -1,-0.40625 -1.70312,-1.179688 -0.70313,-0.773437 -1.08594,-1.898437 -0.375,-1.125 -0.375,-2.570313 0,-1.421875 0.375,-2.546875 0.375,-1.132812 1.09375,-1.9375 0.6875,-0.765625 1.70313,-1.171875 1.02343,-0.40625 2.22656,-0.40625 1.25,0 2.24219,0.414063 1,0.40625 1.69531,1.164062 z m -0.14063,4.484375 q 0,-2.265625 -1.01562,-3.492187 -1.01563,-1.234375 -2.77344,-1.234375 -1.77344,0 -2.78906,1.234375 -1.00781,1.226562 -1.00781,3.492187 0,2.289063 1.03125,3.507813 1.03125,1.210937 2.76562,1.210937 1.73438,0 2.75781,-1.210937 1.03125,-1.21875 1.03125,-3.507813 z"
         id="path3183" />
      <path
         d="m 183.45703,68.023066 h -1.46875 v -0.96875 q -0.74219,0.585938 -1.42187,0.898438 -0.67969,0.3125 -1.5,0.3125 -1.375,0 -2.14063,-0.835938 -0.76562,-0.84375 -0.76562,-2.46875 v -5.664062 h 1.46875 v 4.96875 q 0,0.664062 0.0625,1.140625 0.0625,0.46875 0.26562,0.804687 0.21094,0.34375 0.54688,0.5 0.33593,0.15625 0.97656,0.15625 0.57031,0 1.24219,-0.296875 0.67968,-0.296875 1.26562,-0.757812 v -6.515625 h 1.46875 z"
         id="path3185" />
      <path
         d="m 190.87891,67.944941 q -0.41407,0.109375 -0.90625,0.179688 -0.48438,0.07031 -0.86719,0.07031 -1.33594,0 -2.03125,-0.71875 -0.69531,-0.71875 -0.69531,-2.304687 v -4.640625 h -0.99219 v -1.234375 h 0.99219 v -2.507813 h 1.46875 v 2.507813 h 3.03125 v 1.234375 h -3.03125 v 3.976562 q 0,0.6875 0.0312,1.078125 0.0312,0.382813 0.21875,0.71875 0.17187,0.3125 0.46875,0.460938 0.30468,0.140625 0.92187,0.140625 0.35938,0 0.75,-0.101563 0.39063,-0.109375 0.5625,-0.179687 h 0.0781 z"
         id="path3187" />
    </g>
    <g
       aria-label="Morse"
       transform="matrix(0.26458333,0,0,0.26458333,52.250262,-18.42642)"
       id="text3696"
       style="font-size:18.6667px;line-height:1.25;-inkscape-font-specification:'sans-serif, Normal';white-space:pre;shape-inside:url(#rect3698)">
      <path
         d="m -152.08917,100.98332 h -1.80469 V 89.28929 l -3.77344,7.957046 h -1.07553 l -3.7461,-7.957046 v 11.69403 h -1.6862 V 87.411683 h 2.46095 l 3.61849,7.556003 3.50001,-7.556003 h 2.50651 z"
         id="path1300" />
      <path
         d="m -139.90295,95.897375 q 0,2.488286 -1.27604,3.928392 -1.27605,1.440103 -3.41798,1.440103 -2.16016,0 -3.4362,-1.440103 -1.26693,-1.440106 -1.26693,-3.928392 0,-2.488286 1.26693,-3.928393 1.27604,-1.449221 3.4362,-1.449221 2.14193,0 3.41798,1.449221 1.27604,1.440107 1.27604,3.928393 z m -1.76823,0 q 0,-1.977868 -0.77474,-2.934901 -0.77474,-0.966148 -2.15105,-0.966148 -1.39453,0 -2.16927,0.966148 -0.76563,0.957033 -0.76563,2.934901 0,1.914066 0.77474,2.907557 0.77474,0.984377 2.16016,0.984377 1.36719,0 2.14193,-0.975262 0.78386,-0.984377 0.78386,-2.916672 z"
         id="path1302" />
      <path
         d="m -130.89772,92.670807 h -0.0911 q -0.38281,-0.09115 -0.7474,-0.127605 -0.35547,-0.04557 -0.84765,-0.04557 -0.79297,0 -1.53126,0.35547 -0.73828,0.346354 -1.42187,0.902345 v 7.227876 h -1.71355 V 90.802314 h 1.71355 v 1.503909 q 1.02083,-0.820314 1.79557,-1.157555 0.78386,-0.346354 1.59506,-0.346354 0.44661,0 0.64713,0.02734 0.20052,0.01823 0.60157,0.08203 z"
         id="path1304" />
      <path
         d="m -122.01099,98.048421 q 0,1.394533 -1.15755,2.287769 -1.14844,0.89323 -3.14454,0.89323 -1.13021,0 -2.07813,-0.26433 -0.9388,-0.27344 -1.57682,-0.59245 v -1.923177 h 0.0911 q 0.8112,0.610678 1.80469,0.975262 0.9935,0.355469 1.90496,0.355469 1.13021,0 1.76823,-0.364584 0.63802,-0.364583 0.63802,-1.148439 0,-0.601564 -0.34635,-0.91146 -0.34636,-0.309896 -1.33074,-0.528647 -0.36458,-0.08203 -0.95703,-0.191406 -0.58333,-0.109376 -1.06641,-0.23698 -1.33984,-0.355469 -1.90495,-1.039064 -0.55599,-0.69271 -0.55599,-1.695316 0,-0.628907 0.25521,-1.184898 0.26432,-0.555991 0.79297,-0.993491 0.51042,-0.428387 1.29427,-0.674481 0.79297,-0.255209 1.76824,-0.255209 0.91146,0 1.84114,0.227865 0.93881,0.218751 1.5586,0.537762 v 1.832034 h -0.0911 q -0.65625,-0.483073 -1.59505,-0.811199 -0.9388,-0.33724 -1.84115,-0.33724 -0.9388,0 -1.58594,0.364584 -0.64714,0.355469 -0.64714,1.066408 0,0.628907 0.39193,0.947918 0.38281,0.319011 1.23959,0.519533 0.47396,0.109375 1.05729,0.21875 0.59245,0.109375 0.98438,0.200521 1.19401,0.273438 1.84115,0.938804 0.64713,0.67448 0.64713,1.786462 z"
         id="path1306" />
      <path
         d="m -111.03701,96.070552 h -7.50132 q 0,0.938804 0.28256,1.640628 0.28255,0.69271 0.77474,1.139325 0.47396,0.437501 1.12109,0.656251 0.65626,0.218751 1.44011,0.218751 1.03907,0 2.08724,-0.410157 1.0573,-0.419272 1.50391,-0.820314 h 0.0911 v 1.868494 q -0.86589,0.36458 -1.76823,0.61068 -0.90235,0.24609 -1.89584,0.24609 -2.53386,0 -3.95574,-1.367189 -1.42187,-1.376304 -1.42187,-3.901048 0,-2.497401 1.35807,-3.964851 1.36719,-1.467451 3.59115,-1.467451 2.0599,0 3.17188,1.203127 1.1211,1.203127 1.1211,3.417975 z m -1.66797,-1.312502 q -0.009,-1.348961 -0.6836,-2.087243 -0.66536,-0.738283 -2.03255,-0.738283 -1.37631,0 -2.19662,0.811199 -0.8112,0.8112 -0.92058,2.014327 z"
         id="path1308" />
    </g>
    <g
       aria-label="Clock"
       transform="matrix(0.26458333,0,0,0.26458333,96.050152,-42.897253)"
       id="text6210"
       style="font-size:18.6667px;line-height:1.25;-inkscape-font-specification:'sans-serif, Normal';white-space:pre;shape-inside:url(#rect6212)">
      <path
         d="m -306.33592,229.74504 q -0.5013,0.21875 -0.91146,0.41016 -0.40104,0.1914 -1.05729,0.40104 -0.55599,0.17318 -1.21224,0.29167 -0.64714,0.1276 -1.43099,0.1276 -1.47657,0 -2.68881,-0.41016 -1.20313,-0.41927 -2.09636,-1.30339 -0.875,-0.86588 -1.36719,-2.19661 -0.49219,-1.33985 -0.49219,-3.10808 0,-1.67709 0.47396,-2.99871 0.47396,-1.32161 1.36719,-2.23307 0.86589,-0.88412 2.08725,-1.34896 1.23047,-0.46485 2.72526,-0.46485 1.09375,0 2.17839,0.26433 1.09375,0.26432 2.42448,0.92968 v 2.14194 h -0.13671 q -1.1211,-0.93881 -2.22397,-1.36719 -1.10286,-0.42839 -2.36068,-0.42839 -1.02995,0 -1.85938,0.33724 -0.82031,0.32813 -1.46745,1.02995 -0.6289,0.68359 -0.98437,1.73177 -0.34636,1.03907 -0.34636,2.40626 0,1.43099 0.38281,2.46094 0.39193,1.02995 1.00261,1.67709 0.63802,0.67448 1.48568,1.0026 0.85677,0.31901 1.80469,0.31901 1.30339,0 2.44271,-0.44661 1.13933,-0.44662 2.13282,-1.33985 h 0.1276 z"
         id="path1329" />
      <path
         d="m -302.18877,230.72942 h -1.71355 V 216.5471 h 1.71355 z"
         id="path1331" />
      <path
         d="m -290.12104,225.64347 q 0,2.48828 -1.27605,3.92839 -1.27604,1.44011 -3.41797,1.44011 -2.16016,0 -3.43621,-1.44011 -1.26692,-1.44011 -1.26692,-3.92839 0,-2.48829 1.26692,-3.92839 1.27605,-1.44923 3.43621,-1.44923 2.14193,0 3.41797,1.44923 1.27605,1.4401 1.27605,3.92839 z m -1.76823,0 q 0,-1.97787 -0.77475,-2.9349 -0.77474,-0.96615 -2.15104,-0.96615 -1.39454,0 -2.16928,0.96615 -0.76562,0.95703 -0.76562,2.9349 0,1.91406 0.77474,2.90756 0.77474,0.98437 2.16016,0.98437 1.36719,0 2.14193,-0.97526 0.78386,-0.98438 0.78386,-2.91667 z"
         id="path1333" />
      <path
         d="m -279.94004,230.09139 q -0.85677,0.41016 -1.63151,0.63803 -0.76563,0.22786 -1.63151,0.22786 -1.10287,0 -2.02344,-0.31901 -0.92058,-0.32813 -1.57683,-0.98438 -0.66536,-0.65625 -1.02995,-1.65885 -0.36458,-1.00261 -0.36458,-2.34246 0,-2.4974 1.36719,-3.91927 1.3763,-1.42188 3.62761,-1.42188 0.875,0 1.71354,0.24609 0.84766,0.2461 1.54948,0.60157 v 1.90495 h -0.0911 q -0.78386,-0.61068 -1.6224,-0.93881 -0.82943,-0.32812 -1.6224,-0.32812 -1.45833,0 -2.30599,0.98437 -0.83855,0.97527 -0.83855,2.8711 0,1.84115 0.82032,2.83464 0.82943,0.98438 2.32422,0.98438 0.51953,0 1.05729,-0.13672 0.53777,-0.13672 0.96615,-0.35547 0.3737,-0.1914 0.70183,-0.40104 0.32812,-0.21875 0.51953,-0.3737 h 0.0911 z"
         id="path1335" />
      <path
         d="m -268.50121,230.72942 h -2.26042 l -4.08335,-4.45704 -1.11198,1.05729 v 3.39975 h -1.71354 V 216.5471 h 1.71354 v 9.09637 l 4.94923,-5.09506 h 2.16016 l -4.73048,4.70313 z"
         id="path1337" />
    </g>
    <path
       style="display:inline;fill:none;stroke:#000000;stroke-width:0.242868px;stroke-linecap:butt;stroke-linejoin:miter;stroke-opacity:1"
       d="m 3.6843751,60.968574 c 22.5445559,0 22.9699239,0 22.9699239,0"
       id="path41615" />
    <path
       style="display:inline;fill:none;stroke:#000000;stroke-width:0.242868px;stroke-linecap:butt;stroke-linejoin:miter;stroke-opacity:1"
       d="m 3.6843751,97.559063 c 22.5445549,0 22.9699229,0 22.9699229,0"
       id="path41615-3" />
    <path
       style="display:inline;fill:none;stroke:#000000;stroke-width:0.242868px;stroke-linecap:butt;stroke-linejoin:miter;stroke-opacity:1"
       d="m 3.6843751,21.707838 c 22.5445559,0 22.9699239,0 22.9699239,0"
       id="path41615-4" />
  </g>
  <g
     inkscape:groupmode="layer"
     id="layer2"
     inkscape:label="components"
     style="display:none">
    <circle
       style="opacity:1;fill:#0000ff;fill-rule:evenodd;stroke-width:0.171951"
       id="path91"
       cx="15.165489"
       cy="111.23701"
       inkscape:label="Audio_Out"
       r="3.5" />
    <circle
       style="display:inline;fill:#ff00ff;stroke-width:0.129024"
       id="path231-1"
       cx="26.150866"
       cy="101.54674"
       inkscape:label="File_Loaded_LED"
       r="1" />
    <circle
       style="fill:#00ff00;stroke-width:0.438494"
       id="path422"
       cx="6.6081948"
       cy="16.311081"
       inkscape:label="Length_CV"
       r="3.5" />
  </g>
  <g
     inkscape:groupmode="layer"
     id="layer3"
     inkscape:label="TO DO"
     style="display:none">
    <text
       xml:space="preserve"
       transform="matrix(0.26458333,0,0,0.26458333,96.530697,16.312249)"
       id="text8416"
       style="font-size:18.6667px;line-height:1.25;font-family:sans-serif;-inkscape-font-specification:'sans-serif, Normal';white-space:pre;shape-inside:url(#rect8418);display:inline"><tspan
         x="-320.54883"
         y="292.74113"
         id="tspan1507">Once</tspan></text>
    <text
       xml:space="preserve"
       transform="matrix(0.26458333,0,0,0.26458333,103.14086,-49.535932)"
       id="text11062"
       style="font-style:normal;font-variant:normal;font-weight:normal;font-stretch:normal;font-size:16px;line-height:1.25;font-family:sans-serif;-inkscape-font-specification:'sans-serif, Normal';font-variant-ligatures:normal;font-variant-caps:normal;font-variant-numeric:normal;font-variant-east-asian:normal;white-space:pre;shape-inside:url(#rect11064);display:inline"><tspan
         x="-327.22656"
         y="346.59533"
         id="tspan1509">Fwd</tspan></text>
    <text
       xml:space="preserve"
       transform="matrix(0.26458333,0,0,0.26458333,90.921337,-65.014144)"
       id="text11062-2"
       style="font-style:normal;font-variant:normal;font-weight:normal;font-stretch:normal;font-size:18.6667px;line-height:1.25;font-family:sans-serif;-inkscape-font-specification:'sans-serif, Normal';font-variant-ligatures:normal;font-variant-caps:normal;font-variant-numeric:normal;font-variant-east-asian:normal;white-space:pre;shape-inside:url(#rect11064-8);display:inline"><tspan
         x="-327.22656"
         y="349.02824"
         id="tspan1511">Direction</tspan></text>
    <text
       xml:space="preserve"
       transform="matrix(0.26458333,0,0,0.26458333,93.490135,-25.006362)"
       id="text11062-2-7"
       style="font-style:normal;font-variant:normal;font-weight:normal;font-stretch:normal;font-size:18.6667px;line-height:1.25;font-family:sans-serif;-inkscape-font-specification:'sans-serif, Normal';font-variant-ligatures:normal;font-variant-caps:normal;font-variant-numeric:normal;font-variant-east-asian:normal;white-space:pre;shape-inside:url(#rect11064-8-5);display:inline"><tspan
         x="-327.22656"
         y="349.02824"
         id="tspan1513">At End</tspan></text>
    <text
       xml:space="preserve"
       style="font-style:normal;font-variant:normal;font-weight:normal;font-stretch:normal;font-size:4.23333px;line-height:1.25;font-family:sans-serif;-inkscape-font-specification:'sans-serif, Normal';font-variant-ligatures:normal;font-variant-caps:normal;font-variant-numeric:normal;font-variant-east-asian:normal;display:inline;stroke-width:0.264583"
       x="3.1840892"
       y="42.103336"
       id="text11840"><tspan
         sodipodi:role="line"
         id="tspan11838"
         style="font-style:normal;font-variant:normal;font-weight:normal;font-stretch:normal;font-size:4.23333px;font-family:sans-serif;-inkscape-font-specification:'sans-serif, Normal';font-variant-ligatures:normal;font-variant-caps:normal;font-variant-numeric:normal;font-variant-east-asian:normal;stroke-width:0.264583"
         x="3.1840892"
         y="42.103336">Rev</tspan></text>
    <text
       xml:space="preserve"
       style="font-size:4.9389px;line-height:1.25;font-family:sans-serif;-inkscape-font-specification:'sans-serif, Normal';display:inline;stroke-width:0.264583"
       x="11.009007"
       y="74.344238"
       id="text16642"><tspan
         sodipodi:role="line"
         id="tspan16640"
         style="stroke-width:0.264583"
         x="11.009007"
         y="74.344238">Loop</tspan></text>
    <text
       xml:space="preserve"
       style="font-size:4.9389px;line-height:1.25;font-family:sans-serif;-inkscape-font-specification:'sans-serif, Normal';display:inline;stroke-width:0.264583"
       x="11.009007"
       y="84.277245"
       id="text17306"><tspan
         sodipodi:role="line"
         id="tspan17304"
         style="stroke-width:0.264583"
         x="11.009007"
         y="84.277245">Bounce</tspan></text>
    <circle
       style="display:inline;opacity:1;fill:#00ff00;fill-rule:evenodd;stroke-width:0.247343"
       id="path89"
       cx="6.6081948"
       cy="91.97126"
       inkscape:label="Audio_In"
       r="3.5" />
    <circle
       style="display:inline;fill:#ff0000;stroke-width:0.409007"
       id="path424"
       cx="13.918612"
       cy="33.894962"
       inkscape:label="Direction_Knob"
       r="4.5" />
    <circle
       style="display:inline;opacity:1;fill:#00ff00;stroke-width:0.444895"
       id="path428"
       cx="6.6081948"
       cy="82.519211"
       inkscape:label="Bounce_CV"
       r="3.5" />
    <circle
       style="display:inline;fill:#00ff00;stroke-width:0.444895"
       id="path428-4-7"
       cx="14.098609"
       cy="48.372299"
       inkscape:label="Semitone_CV"
       r="3.5" />
    <circle
       style="display:inline;fill:#00ff00;stroke-width:0.315752"
       id="path438"
       cx="6.6081948"
       cy="73.045609"
       inkscape:label="Loop_CV"
       r="3.5" />
    <text
       xml:space="preserve"
       style="font-style:normal;font-variant:normal;font-weight:normal;font-stretch:normal;font-size:4.9389px;line-height:1.25;font-family:sans-serif;-inkscape-font-specification:'sans-serif, Normal';font-variant-ligatures:normal;font-variant-caps:normal;font-variant-numeric:normal;font-variant-east-asian:normal;display:inline;stroke-width:0.264583"
       x="7.8979239"
       y="56.77396"
       id="text12570"><tspan
         sodipodi:role="line"
         id="tspan34724"
         x="7.8979239"
         y="56.77396">Rand</tspan></text>
  </g>
</svg>
